<svg width="174" height="208" viewBox="0 0 174 208" fill="none" xmlns="http://www.w3.org/2000/svg">
<path fill-rule="evenodd" clip-rule="evenodd" d="M86.3662 0.880562C86.1859 1.13054 85.2199 2.66712 84.2198 4.29505C81.8342 8.17801 80.1861 10.1235 78.1672 11.4399C76.5121 12.5191 75.9099 12.7982 74.6931 13.0504C73.7212 13.2518 73.1898 13.2595 69.4496 13.125C66.0737 13.0037 65.0787 12.9242 64.1812 12.7039C63.279 12.4826 62.4514 12.4175 59.6997 12.3512L56.3248 12.2699L54.7204 12.6977C53.8379 12.9329 52.4188 13.3976 51.5668 13.7303C49.8615 14.3962 47.0942 15.9766 46.02 16.8982C45.647 17.2182 44.8752 17.8689 44.3049 18.3443C43.2092 19.2575 40.822 21.9186 40.3429 22.7607C40.1868 23.0353 39.6987 23.8257 39.2584 24.5174C37.7061 26.9556 36.2296 30.8804 35.5287 34.432C35.2038 36.0778 35.1506 36.6016 35.1069 38.5826C35.0517 41.0783 35.0494 41.0861 34.3458 41.0897C34.1247 41.0908 32.8799 41.333 31.5795 41.6279C28.5079 42.3243 25.2699 43.5527 23.5513 44.6735C20.4558 46.6924 17.8724 49.7145 15.4577 54.1421C14.2927 56.2782 14.0953 56.7338 13.3306 59.0528C12.0586 62.9102 11.4554 66.6246 11.4554 70.5997C11.4554 71.4275 11.5747 72.6945 11.7953 74.2092C12.0837 76.1882 12.1483 77.0544 12.2206 79.9065C12.3883 86.5244 12.0078 90.5932 10.9876 93.0914C10.2153 94.9825 9.15837 96.7648 7.9558 98.204L6.83147 99.5494L3.45348 101.611C1.59552 102.745 0.0470511 103.763 0.0123063 103.873C-0.0224384 103.984 0.0189456 104.238 0.104258 104.438C0.225423 104.723 0.436989 104.871 1.07169 105.116C1.51839 105.287 2.92965 106.059 4.20768 106.829C6.30897 108.097 6.62488 108.333 7.50877 109.3C8.85917 110.777 9.74693 112.239 10.6573 114.483C11.2362 115.911 11.5256 116.839 11.8524 118.318L12.2836 120.269L12.2757 125.179C12.2686 129.574 12.2435 130.245 12.0363 131.57C11.5797 134.492 11.525 138.871 11.9012 142.4C12.129 144.537 12.2219 145.006 12.9043 147.47C13.6206 150.056 13.7158 150.305 14.9056 152.717C15.6976 154.322 16.4594 155.674 16.9865 156.409C17.4438 157.047 18.1167 157.99 18.4818 158.505C19.1629 159.465 22.1022 162.35 22.7643 162.708C22.965 162.817 23.6271 163.191 24.2357 163.539C27.4714 165.392 30.0338 166.225 33.235 166.466C34.1677 166.536 34.9641 166.634 35.0045 166.683C35.0448 166.732 35.1118 167.971 35.1534 169.436C35.2226 171.874 35.2628 172.265 35.6264 174.034C36.1896 176.775 37.4076 180.121 38.6212 182.261C40.5973 185.744 41.5216 186.911 44.3191 189.454C44.9581 190.035 45.8793 190.8 46.3661 191.155C46.853 191.509 47.5501 192.025 47.9153 192.301C48.5366 192.77 49.6133 193.36 50.9029 193.938C52.1257 194.486 55.0126 195.25 56.4099 195.396C59.255 195.693 64.2178 195.495 66.171 195.006C67.3433 194.713 72.196 194.388 73.6972 194.502C74.8041 194.586 75.9327 195.038 77.7075 196.106C78.8582 196.799 79.2683 197.14 80.432 198.374C81.9351 199.968 82.7728 201.073 84.4046 203.616C86.1455 206.329 86.5407 206.885 86.8143 207.008C87.2268 207.194 87.6322 207.011 87.8585 206.537C87.9721 206.3 88.268 205.827 88.5161 205.486C88.7643 205.146 89.263 204.359 89.6244 203.737C91.2364 200.965 92.2499 199.634 94.3139 197.578C95.2681 196.628 96.7411 195.633 97.9854 195.098L99.1472 194.599L102.432 194.601C105.543 194.602 105.805 194.622 107.356 194.972L108.995 195.342L113.975 195.324L118.954 195.306L120.605 194.811C122.301 194.302 125.409 192.872 126.183 192.244C126.406 192.063 127.506 191.187 128.626 190.297C130.465 188.837 132.404 186.952 132.836 186.203C132.925 186.05 133.3 185.5 133.669 184.982C135.094 182.984 137.004 178.894 137.597 176.574C138.029 174.881 138.586 171.414 138.933 168.255C139.009 167.564 139.136 166.921 139.214 166.825C139.305 166.715 139.837 166.616 140.664 166.556C141.53 166.493 142.379 166.331 143.187 166.074C145.079 165.472 148.223 164.269 148.775 163.936C149.049 163.771 149.697 163.409 150.215 163.132C151.714 162.331 153.637 160.672 154.928 159.064C156.072 157.639 158.157 154.508 158.967 152.997C159.523 151.961 160.847 148.675 161.151 147.58C162.132 144.04 162.181 143.739 162.273 140.653C162.393 136.612 162.166 131.167 161.818 129.754C161.589 128.823 161.57 128.471 161.564 125.246L161.559 121.748L161.966 119.394C162.803 114.557 164.221 111.514 166.859 108.894C168.171 107.59 169.539 106.689 171.872 105.59C173.251 104.94 174.005 104.402 174 104.072C173.995 103.755 173.197 103.088 172.128 102.507C171.614 102.228 171.141 101.947 171.077 101.884C171.013 101.821 170.09 101.241 169.027 100.596L167.093 99.424L165.873 97.9395C164.527 96.3016 164.081 95.4677 163.091 92.7396C162.711 91.6925 162.366 90.4053 162.044 88.838L161.564 86.499L161.565 83.0009C161.565 79.822 161.604 79.0978 161.986 75.0631C162.39 70.8011 162.404 70.5101 162.333 67.7979C162.261 65.0697 162.244 64.9032 161.817 62.9545C161.545 61.7074 161.16 60.3709 160.811 59.4564C158.86 54.345 158.732 54.0874 156.559 50.8857C154.896 48.4356 153.652 47.1115 151.169 45.1492C150.272 44.4402 148.021 43.1737 146.84 42.7139C145.093 42.0331 142.186 41.2675 140.668 41.0878C139.376 40.935 139.251 40.8964 139.203 40.6362C139.158 40.3903 138.906 38.4387 138.473 34.9702C138.148 32.3706 136.609 27.8539 135.21 25.3943C133.604 22.5718 132.708 21.3293 130.96 19.5035C129.56 18.0411 128.97 17.5283 127.187 16.223C124.958 14.5899 123.646 13.9923 119.895 12.8988L117.847 12.3019L115.136 12.3013C112.277 12.3003 110.522 12.4436 109.295 12.7781C108.407 13.0201 104.658 13.2447 101.55 13.2421L99.3052 13.2402L97.9537 12.694C97.2104 12.3934 96.428 12.0073 96.215 11.8359C96.0019 11.6643 95.5532 11.3152 95.2179 11.0599C94.1556 10.2511 92.422 8.45799 91.7137 7.43508C91.3376 6.89194 90.7058 5.88962 90.3097 5.20764C89.32 3.50369 87.7207 0.92348 87.5432 0.744408C87.4628 0.663145 87.2388 0.558338 87.0456 0.511384C86.7421 0.437521 86.6496 0.487839 86.3662 0.880562ZM87.767 7.89723C88.624 9.3586 91.0414 12.357 92.2061 13.4031C94.1854 15.1811 96.1305 16.419 97.4321 16.7294C97.8277 16.8236 98.5475 17.0528 99.0316 17.2386C99.848 17.5518 100.073 17.5766 102.13 17.5791C104.642 17.5824 104.891 17.5588 107.335 17.084C110.678 16.4351 118.752 16.4612 120.392 17.1263C121.953 17.7589 122.663 18.0901 123.601 18.6234C125.376 19.6321 127.015 20.7997 127.751 21.5793C128.146 21.9984 128.669 22.515 128.913 22.7273C129.515 23.2531 130.649 24.6577 131.513 25.9503C132.025 26.7161 132.521 27.7265 133.253 29.4978C134.194 31.7704 134.323 32.1809 134.822 34.4814L135.365 36.9883L135.472 40.0827C135.53 41.7846 135.565 43.1954 135.55 43.2177C135.535 43.2399 133.985 43.0731 132.107 42.8468C130.228 42.6205 128.181 42.3753 127.557 42.3017C126.933 42.2282 125.913 42.1079 125.289 42.0343C121.293 41.5632 119.97 41.4398 111.596 40.7574C108.47 40.5027 100.093 40.0593 94.7211 39.8641C90.1965 39.6998 77.0803 39.7901 74.0845 40.0063C73.0804 40.0787 70.5658 40.2024 68.4966 40.2814C62.7057 40.5022 52.5949 41.2401 48.0813 41.7716C46.2434 41.9879 38.9903 42.9734 38.5928 43.0607C38.3424 43.1158 38.2332 43.0882 38.2332 42.9697C38.2332 42.2758 38.9492 35.6726 39.1273 34.7244C39.4726 32.8851 40.0445 31.0804 40.9186 29.0707C41.8448 26.9416 42.4371 25.9267 43.6926 24.3178C44.9031 22.7665 45.9285 21.7687 47.6745 20.4428C49.5175 19.0432 49.691 18.938 51.5668 18.0835C54.2343 16.8684 54.6594 16.7637 57.5595 16.608C61.0602 16.4201 64.9502 16.7045 68.616 17.4165C69.794 17.6452 72.8478 17.731 73.8632 17.5639C75.5434 17.2873 78.3224 16.1261 79.7585 15.1005C80.5973 14.5017 82.3073 12.8865 83.1656 11.8826C83.4437 11.5573 83.9343 10.9918 84.2559 10.6258C84.5773 10.2599 85.2904 9.27613 85.8404 8.43956C86.3904 7.60299 86.9205 6.92006 87.0185 6.92181C87.1166 6.92356 87.4534 7.36256 87.767 7.89723ZM82.7126 20.3141C82.5694 20.772 82.5761 22.3273 82.724 22.9751C82.8686 23.6081 82.8165 23.6851 82.3891 23.4698C82.2058 23.3775 81.9303 23.3403 81.7769 23.3871C81.5304 23.4623 81.4982 23.5425 81.4982 24.0817C81.4982 24.7472 81.6785 25.2764 82.0408 25.6752C82.3527 26.0184 82.4401 25.8739 82.2256 25.3698C82.0096 24.8619 82.0027 24.5433 82.2076 24.5433C82.4143 24.5433 82.933 25.302 82.9505 25.63C82.9807 26.1956 82.9998 26.2247 83.313 26.1836C83.6088 26.1449 83.6173 26.1567 83.444 26.3674C83.1798 26.6886 83.2809 26.8914 83.7284 26.9381C83.994 26.9658 84.1999 26.8919 84.3837 26.7028C84.6488 26.4301 84.6494 26.4247 84.4322 26.2209C84.214 26.016 84.2141 26.0141 84.4452 25.9407C84.6471 25.8763 84.6709 25.791 84.6249 25.2946C84.571 24.7143 84.8182 23.8706 85.042 23.8706C85.1599 23.8706 85.1808 23.9791 85.1953 24.6652C85.2007 24.9172 85.2609 25.1467 85.3293 25.1751C85.4994 25.2462 85.589 24.7681 85.5908 23.7793C85.5925 22.8939 85.4292 22.5252 85.0355 22.5252C84.8309 22.5252 84.3752 23.007 84.3752 23.2233C84.3752 23.2834 84.3005 23.3325 84.2092 23.3325C84.0925 23.3325 84.0432 23.189 84.0432 22.8487C84.0432 22.0749 83.7188 20.9305 83.3577 20.4306C82.9588 19.8781 82.8548 19.8594 82.7126 20.3141ZM89.366 20.2904C89.108 20.6244 88.6906 22.0475 88.6906 22.5934C88.6906 23.2745 88.5785 23.3591 88.2473 22.928C87.6877 22.1995 87.1833 22.5274 87.0697 23.6936C87.0227 24.1748 87.0554 24.4798 87.1866 24.7883C87.4396 25.3831 87.6289 25.3426 87.5465 24.7115C87.5102 24.4341 87.5296 24.1162 87.5898 24.0052C87.683 23.8332 87.7317 23.8503 87.9183 24.121C88.1193 24.4124 88.2221 25.3632 88.1565 26.3241C88.1336 26.659 88.6107 26.991 89.0424 26.9407C89.321 26.9081 89.4057 26.8378 89.3927 26.6495C89.3833 26.513 89.4705 26.2859 89.5863 26.145C89.7023 26.004 89.7973 25.7827 89.7976 25.6533C89.7982 25.2506 90.2199 24.5433 90.4594 24.5433C90.7262 24.5433 90.7332 24.6316 90.5164 25.2626C90.3151 25.8484 90.3133 25.8887 90.4887 25.8885C90.5648 25.8883 90.7668 25.6192 90.9376 25.2904C91.1879 24.8086 91.2417 24.5673 91.2142 24.0462C91.1833 23.4572 91.1539 23.396 90.8833 23.358C90.72 23.335 90.4264 23.417 90.2308 23.5399L89.8751 23.7635L89.9521 23.2453C90.1317 22.036 90.1536 21.1618 90.0192 20.5776C89.8606 19.889 89.7229 19.8285 89.366 20.2904ZM77.1981 23.4334C77.5019 24.0068 78.1582 25.2292 78.6562 26.1496C79.1543 27.0701 79.6268 27.9632 79.7062 28.1341C79.9598 28.6803 80.7496 28.3992 80.5691 27.827C80.5186 27.6672 80.4196 27.632 80.1971 27.6948C79.9816 27.7556 79.9406 27.7427 80.0553 27.6501C80.1941 27.538 80.1824 27.4191 79.9723 26.8025C79.6918 25.9798 79.665 25.5814 79.8758 25.3687C80.0251 25.218 80.1542 25.4182 80.3255 26.0654C80.4301 26.4604 80.613 26.1844 80.613 25.6316C80.613 24.8611 80.2124 24.2176 79.7003 24.1655C79.3333 24.1281 79.2852 24.1616 79.2183 24.5019C79.076 25.225 78.9376 25.2698 78.7148 24.6648C78.3916 23.7872 77.7709 22.845 77.3595 22.6077C76.6395 22.1922 76.6127 22.3291 77.1981 23.4334ZM95.1536 22.7643C94.7452 23.2018 94.2138 24.0385 93.957 24.6487C93.7642 25.1069 93.5593 25.1204 93.5593 24.6746C93.5593 24.3695 93.2008 24.1061 92.8658 24.1649C92.4978 24.2296 92.104 25.0398 92.1433 25.6513C92.1822 26.258 92.3536 26.2806 92.5081 25.6996C92.569 25.4706 92.6934 25.2833 92.7847 25.2833C93.0487 25.2833 93.0445 25.8502 92.7747 26.6588C92.5438 27.3504 92.5391 27.4179 92.7104 27.5702C92.9863 27.8156 92.9338 27.9223 92.6221 27.7497C92.4122 27.6334 92.3087 27.6385 92.1766 27.7717C92.0215 27.9283 92.0229 27.9699 92.1905 28.1951C92.4901 28.5977 92.8316 28.5062 93.1426 27.9405C94.9729 24.611 95.7723 22.9614 95.7723 22.5141C95.7723 22.2848 95.4976 22.3959 95.1536 22.7643ZM85.7246 26.3581C85.0551 26.9985 84.2729 27.2908 83.2133 27.2965C82.7264 27.2992 82.1906 27.2547 82.0226 27.1975C81.7569 27.1073 81.6993 27.1425 81.5813 27.4666C81.4202 27.9092 81.2282 28.1259 80.7768 28.3738C80.593 28.4747 80.3496 28.6822 80.2361 28.8347C80.0523 29.0816 80.049 29.121 80.2061 29.1944C80.5166 29.3393 81.0965 28.9961 81.6089 28.364L82.1068 27.7497L82.741 27.8346C83.5996 27.9497 84.5842 27.7108 85.6165 27.1371L86.4763 26.6592L86.8918 26.9926C87.6432 27.5955 88.419 27.8282 89.6271 27.8132L90.7295 27.7995L91.1559 28.3886C91.5744 28.9667 92.355 29.4205 92.5364 29.1914C92.5817 29.1344 92.4241 28.8976 92.1863 28.6654C91.5308 28.0252 91.0557 27.4575 90.9983 27.2454C90.956 27.0892 90.8803 27.0832 90.5768 27.2118C89.5641 27.6411 87.9233 27.2156 86.7009 26.2066C86.489 26.0319 86.2898 25.8918 86.2582 25.8956C86.2267 25.8995 85.9866 26.1076 85.7246 26.3581ZM85.8009 27.3489C85.2833 27.8378 84.3801 28.1086 83.2677 28.1086H82.2155L81.3113 28.9159C80.8139 29.3599 80.4036 29.7569 80.3993 29.7983C80.3951 29.8396 80.4612 29.989 80.5461 30.1302C80.7146 30.4103 80.6359 30.4249 82.826 29.7114C84.6189 29.1275 85.9603 29.0014 87.6976 29.2538C88.6867 29.3975 89.0368 29.4805 90.9005 30.0129C91.9967 30.326 92.0669 30.3311 92.2007 30.1087C92.4115 29.7581 92.3822 29.6861 91.9088 29.3925C91.6706 29.2447 91.3009 28.8986 91.0874 28.6235L90.6992 28.1232L89.5012 28.1038C88.3962 28.086 88.2262 28.0463 87.3082 27.592C86.7609 27.3212 86.2573 27.0996 86.189 27.0996C86.1207 27.0996 85.9461 27.2118 85.8009 27.3489ZM84.2092 29.5983C82.1381 29.9346 81.0556 30.4985 81.0556 31.2407C81.0556 31.6161 80.8927 31.6283 82.7707 31.112C83.7463 30.8438 84.185 30.8072 86.4776 30.8036C89.1519 30.7993 89.6189 30.8644 90.8802 31.4174C91.202 31.5585 91.487 31.6739 91.5136 31.6739C91.5401 31.6739 91.6384 31.4942 91.7318 31.2745C91.8982 30.8831 91.8949 30.8707 91.5714 30.6673C90.662 30.0955 87.3997 29.3644 85.9276 29.4026C85.591 29.4114 84.8178 29.4994 84.2092 29.5983ZM83.9879 31.3465C83.047 31.521 82.0825 31.8098 81.5259 32.0837C81.3674 32.1618 81.2769 32.3207 81.2769 32.5209C81.2769 32.8866 81.4956 34.3848 81.5705 34.5324C81.5985 34.5877 81.7713 34.5386 81.9544 34.4234C82.1376 34.3084 82.7944 34.0966 83.414 33.953C85.4753 33.4756 89.5729 33.6815 90.5938 34.3142C91.1296 34.6461 91.1877 34.576 91.333 33.4216C91.4076 32.829 91.4391 32.286 91.403 32.2149C91.3008 32.0138 89.9666 31.5802 88.7328 31.3473C87.3895 31.0935 85.3536 31.0933 83.9879 31.3465ZM86.7708 31.7769C87.0657 32.006 86.9868 32.6702 86.6419 32.8613C86.4072 32.9912 86.3293 32.9736 86.1439 32.7482C86.0231 32.6013 85.9243 32.3631 85.9243 32.2188C85.9243 31.8066 86.4534 31.5304 86.7708 31.7769ZM84.8731 32.5599C84.8731 32.8762 84.8107 32.9638 84.5104 33.0684C84.2079 33.1739 84.1208 33.1524 83.9859 32.939C83.7588 32.5797 83.8287 32.1809 84.1529 31.9851C84.5291 31.7579 84.8731 32.0324 84.8731 32.5599ZM88.7791 32.1045C88.9896 32.3604 88.9405 32.9914 88.6978 33.1492C88.3362 33.3845 87.916 33.1033 87.916 32.6257C87.916 32.0524 88.4641 31.7214 88.7791 32.1045ZM90.6602 32.5081C90.7332 32.5969 90.793 32.8378 90.793 33.0437C90.793 33.3273 90.7281 33.4376 90.5251 33.4996C90.0652 33.64 89.8554 33.5196 89.8153 33.0921C89.7591 32.4925 90.3254 32.101 90.6602 32.5081ZM82.7788 32.5841C83.1654 32.9061 82.9816 33.692 82.5198 33.692C82.142 33.692 81.9408 33.4746 81.9408 33.0664C81.9408 32.6214 82.4628 32.3211 82.7788 32.5841ZM84.6518 34.173C83.6192 34.3467 82.472 34.6969 82.097 34.9527C81.7103 35.2164 81.3649 35.8619 81.5136 36.0429C81.6116 36.1621 85.1331 36.3807 86.8648 36.375C88.5238 36.3697 90.9339 36.122 91.0822 35.9414C91.2094 35.7868 90.9378 35.2055 90.6205 34.9525C90.0739 34.517 88.6292 34.2244 86.7542 34.1693C85.7804 34.1406 84.8344 34.1422 84.6518 34.173ZM36.1457 51.6195C36.1537 55.1899 36.1911 59.776 36.2286 61.8109C36.2949 65.4072 36.303 65.5099 36.5181 65.4801C36.6398 65.4631 37.4863 65.3551 38.3992 65.2401C40.0037 65.0377 40.6667 64.955 45.315 64.376C48.1614 64.0215 56.0349 63.3028 60.087 63.0278C61.2433 62.9492 63.484 62.7948 65.0664 62.6845C66.6487 62.574 68.4164 62.4512 68.9945 62.4114C72.0713 62.1995 80.8997 61.9454 85.1813 61.9458C91.5102 61.9464 103.469 62.2926 105.952 62.5472C107.017 62.6563 108.81 62.8097 109.936 62.8879C115.787 63.2943 126.101 64.2525 129.521 64.7077C134.245 65.3363 135.602 65.495 135.658 65.4261C135.69 65.388 135.717 60.8811 135.72 55.4106C135.722 49.9402 135.768 45.379 135.821 45.2747C135.903 45.1164 136.326 45.1004 138.401 45.178C141.626 45.2984 141.874 45.344 144.801 46.3524C146.575 46.9636 147.48 47.4142 148.894 48.3905C150.767 49.6837 151.542 50.3915 152.939 52.0877C154.037 53.4215 154.525 54.1445 155.35 55.6661C157.257 59.1839 158.084 61.6259 158.724 65.6316C159.166 68.3982 159.167 69.8323 158.733 74.1886C158.553 76.0015 158.322 78.9474 158.222 80.735C158.041 83.9544 158.041 84.0089 158.283 86.453C158.502 88.6573 158.605 89.2223 159.247 91.746C159.643 93.3 160.12 94.9044 160.307 95.3114C160.495 95.7183 160.733 96.2329 160.836 96.4549C162.126 99.2314 164.76 102.619 166.23 103.395C166.992 103.797 166.867 104.042 165.262 105.298C164.145 106.173 163.343 107.172 161.949 109.423C160.721 111.406 159.857 113.499 159.194 116.098C158.651 118.226 158.453 119.569 158.236 122.571C158.087 124.63 158.088 125.178 158.24 127.751C158.334 129.333 158.533 131.946 158.683 133.556C159.055 137.575 159.121 139.266 158.963 140.719C158.794 142.27 158.168 145.316 157.663 147.042C156.662 150.468 154.336 154.545 152.113 156.77C151.525 157.36 150.885 158.015 150.692 158.227C150.233 158.73 148.148 159.994 146.651 160.677C144.244 161.775 139.395 162.693 137.03 162.498C136.024 162.415 135.956 162.426 135.84 162.69C135.672 163.072 135.5 165.745 135.498 168.013C135.495 171.731 134.512 175.818 132.752 179.437C132.435 180.086 132.177 180.665 132.177 180.723C132.177 180.865 131.331 182.065 130.313 183.368C128.011 186.311 124.321 189.076 121.152 190.233C119.394 190.874 117.308 191.237 115.371 191.239C113.576 191.241 106.563 190.7 104.683 190.415C102.212 190.04 100.686 190.042 99.2579 190.42C98.6493 190.582 97.9537 190.751 97.7121 190.796C97.1087 190.909 94.0696 192.826 92.7629 193.918C91.1502 195.266 88.7788 198.157 87.7259 200.061C87.4692 200.524 87.2123 200.939 87.155 200.982C86.9472 201.139 86.6926 200.88 86.1236 199.937C84.783 197.713 82.0914 194.537 80.6683 193.5C78.23 191.722 77.1276 191.195 74.4023 190.505L72.5623 190.039L70.8614 190.17C69.9259 190.242 68.4385 190.42 67.556 190.565C65.5531 190.895 61.063 191.278 59.3483 191.265C57.7297 191.253 55.1954 190.918 53.8905 190.544C52.7161 190.207 51.2772 189.534 49.3326 188.411C48.0185 187.653 46.4336 186.551 46.119 186.177C46.0438 186.088 45.5678 185.615 45.0612 185.127C42.8352 182.982 40.6585 179.022 39.5836 175.161C38.7838 172.288 38.2891 168.081 38.4109 165.188C38.4519 164.216 38.4535 163.268 38.4147 163.079C38.3004 162.525 37.7819 162.401 36.0631 162.512C34.6293 162.606 34.5817 162.6 34.5817 162.34C34.5817 162.018 35.2049 161.323 35.7753 161.009C36.4353 160.646 37.98 160.722 39.9483 161.213C40.8612 161.441 42.828 161.934 44.3191 162.307C48.3073 163.307 50.0271 163.567 52.618 163.564C56.1726 163.56 57.5759 162.961 58.4304 161.082C58.7267 160.431 58.7579 160.245 58.7545 159.151C58.7512 158.007 58.725 157.875 58.2868 156.776C57.9469 155.923 57.6187 155.355 57.06 154.654L56.2974 153.697L56.8492 152.388C57.3535 151.191 57.3961 151.019 57.3427 150.389C57.2372 149.143 56.7315 148.278 54.3265 145.226C52.7699 143.251 51.5071 141.617 50.7386 140.584C49.6255 139.089 47.9486 137.019 47.8499 137.019C47.7401 137.019 44.983 142.697 44.983 142.923C44.983 142.968 45.1573 143.175 45.3703 143.382C45.5833 143.588 45.7576 143.803 45.7576 143.859C45.7576 143.915 45.5958 144.032 45.3979 144.119C44.8696 144.352 44.2501 145.024 43.904 145.74C43.6304 146.306 43.6002 146.494 43.6036 147.614C43.6058 148.383 43.5637 148.859 43.493 148.859C43.43 148.859 43.1432 148.757 42.8555 148.632C42.5678 148.506 42.3158 148.43 42.2957 148.463C42.2372 148.557 40.6079 151.945 40.2292 152.76C39.5628 154.194 39.5011 154.381 39.6553 154.497C39.7332 154.555 41.9223 155.315 44.52 156.185C47.1177 157.055 49.6912 157.945 50.239 158.163C51.3859 158.621 52.5793 158.779 53.2393 158.56C53.8323 158.364 54.5252 157.464 55.1592 156.066L55.6428 154.999L56.2604 155.801C57.6207 157.565 57.9638 159.693 57.0913 160.954C56.4352 161.902 55.5708 162.113 52.3967 162.1C49.8734 162.09 49.2908 162.02 46.4612 161.381C45.3581 161.133 41.9197 160.212 40.0037 159.652C39.529 159.513 38.72 159.438 37.6246 159.431C36.1213 159.421 35.9032 159.45 35.3114 159.74C34.6565 160.061 33.8392 160.913 33.2406 161.9L32.9602 162.362L31.8069 162.193C29.6773 161.88 26.7498 160.789 25.7088 159.92C25.4464 159.701 24.7628 159.236 24.1898 158.886C23.6168 158.537 23.0691 158.143 22.9726 158.011C22.8761 157.879 22.2993 157.228 21.6907 156.565C19.918 154.633 17.9682 151.498 17.0699 149.136C16.3731 147.304 15.7113 145.129 15.3873 143.606C15.1179 142.34 15.086 141.942 15.0697 139.642C15.0458 136.281 15.2617 132.172 15.5468 130.561C15.8912 128.614 16.0492 123.824 15.8258 122.105C15.1802 117.137 15.2339 117.414 14.4217 114.887C13.1832 111.034 12.4867 109.664 10.5572 107.282C9.67434 106.193 8.24549 104.764 7.52481 104.251C7.37621 104.146 7.345 104.019 7.40099 103.748C7.45676 103.478 7.64221 103.283 8.12798 102.985C8.97314 102.466 10.2436 101.107 11.3421 99.5451C12.4009 98.04 12.7701 97.3508 13.6847 95.1728C14.4686 93.3059 14.9492 91.6017 15.3723 89.1898C15.838 86.5337 15.9074 85.4706 15.8532 81.8182C15.8088 78.8258 15.7682 78.2207 15.5088 76.6776C14.9953 73.6231 14.9141 68.3883 15.326 64.9053C15.5173 63.2881 16.699 59.4353 17.5336 57.7074C17.7481 57.2634 18.0243 56.6751 18.1473 56.4001C18.5152 55.5782 19.6906 53.604 19.8096 53.608C19.8705 53.6101 20.4431 54.3181 21.0821 55.1814C21.7212 56.0448 22.9909 57.7429 23.9038 58.9552C24.8166 60.1674 25.7008 61.3594 25.8684 61.6041L26.1732 62.0492L24.7738 64.4526C24.0041 65.7746 23.0491 67.4292 22.6514 68.1294C22.2538 68.8297 21.4144 70.2766 20.786 71.3448C20.1577 72.413 19.6437 73.3287 19.6437 73.3797C19.6437 73.4307 20.4031 73.3005 21.3311 73.0903C23.3127 72.6419 31.2484 71.334 36.6953 70.5584C39.7134 70.1287 45.8885 69.3524 46.3385 69.3462C46.3842 69.3457 46.4215 68.4067 46.4215 67.2598C46.4215 65.6836 46.3877 65.1733 46.2832 65.1698C46.2071 65.1673 43.8006 65.4803 40.9353 65.8657C38.0702 66.251 35.6427 66.5273 35.5411 66.48C35.3713 66.4007 35.3563 65.7427 35.3563 58.3817V50.3699L35.1073 50.437C34.9703 50.4739 34.2359 50.5998 33.4752 50.7167C32.7144 50.8336 31.3451 51.076 30.4322 51.2554C28.532 51.6288 21.7719 52.7792 20.8608 52.8843L20.2522 52.9544L21.4694 51.4879C22.5369 50.2018 22.8704 49.8947 24.1804 48.991C27.1221 46.9619 30.5023 45.6643 33.3645 45.4658C34.1253 45.4129 34.9468 45.3223 35.1903 45.2644C35.4337 45.2064 35.7449 45.1519 35.8819 45.1434L36.1308 45.1279L36.1457 51.6195ZM75.8625 47.2003C76.6035 47.4158 76.8413 47.5587 77.5961 48.2419C78.3025 48.8812 78.591 49.4537 78.3364 49.7105C78.1954 49.8529 78.093 49.7926 77.7032 49.3376C77.4473 49.039 77.0071 48.6338 76.7246 48.4371C76.1964 48.0693 74.7197 47.6172 74.4529 47.7416C74.3299 47.7991 74.3081 48.632 74.332 52.356L74.3611 56.9002L74.869 56.9403C75.8484 57.0176 77.0437 56.2366 77.856 54.9886C78.3861 54.174 78.6847 53.9704 78.8023 54.3431C78.8943 54.6348 78.7129 55.0246 78.1435 55.7584C77.2577 56.8997 76.8821 57.1901 75.7996 57.571C73.8957 58.241 71.5692 56.894 70.6329 54.5799C70.2927 53.7388 70.267 53.5808 70.267 52.3279C70.267 51.15 70.3041 50.8844 70.5613 50.2169C71.4788 47.8376 73.7025 46.5721 75.8625 47.2003ZM94.0329 47.2095C94.9131 47.5343 96.0909 48.3625 96.5063 48.949C98.0486 51.1261 97.8557 54.252 96.0554 56.2578C94.2744 58.2421 91.772 58.2399 89.9539 56.2524C88.1668 54.2986 88.0015 51.0285 89.5796 48.8431C90.6012 47.4283 92.6193 46.6881 94.0329 47.2095ZM116.552 47.3456C117.249 47.605 117.862 48.2104 117.759 48.5377C117.662 48.8438 117.419 48.817 116.932 48.4466C116.111 47.8224 115.265 47.6438 114.855 48.0084C114.649 48.1911 114.661 48.2329 115.165 49.1184C115.453 49.6245 116.163 50.6325 116.742 51.3582C117.929 52.8458 118.345 53.6914 118.345 54.6139C118.345 55.6034 117.761 56.6637 116.917 57.2063C116.014 57.7861 114.37 57.8932 113.187 57.4491C112.443 57.1699 111.461 56.2304 111.507 55.8418C111.559 55.398 111.888 55.4262 112.361 55.9148C112.915 56.4885 114 56.9975 114.55 56.9423C114.892 56.908 114.977 56.8425 115.007 56.5901C115.051 56.2108 114.718 55.6609 113.523 54.1421C112.284 52.5669 111.865 51.8547 111.652 50.9658C111.24 49.2415 112.05 47.8108 113.784 47.2019C114.427 46.976 115.742 47.0443 116.552 47.3456ZM59.4524 49.3996C59.9977 50.5651 60.5876 51.8364 60.7633 52.2248C60.939 52.6132 61.1145 52.931 61.1533 52.9311C61.1919 52.9313 61.7645 51.6609 62.4258 50.1083C63.5281 47.5198 63.6521 47.2853 63.9203 47.283C64.0812 47.2817 64.2391 47.3639 64.2712 47.4657C64.3381 47.6773 64.2741 47.8397 63.4396 49.5784C61.9808 52.6171 60.2901 56.1657 59.8868 57.0347C59.6465 57.5527 59.4302 58.0031 59.4062 58.0357C59.3347 58.1327 59.08 57.7474 58.7888 57.102C58.6387 56.769 57.9917 55.4371 57.351 54.1421C55.1694 49.7326 54.0809 47.4302 54.1426 47.3554C54.1763 47.3142 55.1619 47.2806 56.3326 47.2806H58.4611L59.4524 49.3996ZM68.9683 52.258C68.9842 54.9585 68.9782 57.2289 68.9548 57.3033C68.9279 57.3887 68.1962 57.4238 66.9617 57.3987L65.011 57.3591V52.4095C65.011 49.6872 65.0453 47.4182 65.0873 47.3672C65.1293 47.3162 66.0131 47.2909 67.0514 47.3111L68.9392 47.3479L68.9683 52.258ZM87.7938 47.4653C87.8631 47.567 87.8888 47.7486 87.8507 47.8689C87.7935 48.0504 87.597 48.0878 86.7015 48.0878H85.6213L85.5527 48.5923C85.515 48.8699 85.4836 50.9484 85.4829 53.2115C85.4822 55.4746 85.4611 57.3514 85.436 57.3822C85.4108 57.4131 84.527 57.4081 83.4719 57.3711L81.5535 57.3038L81.5899 54.0748C81.61 52.2989 81.5928 50.2274 81.5519 49.4714L81.4774 48.097L80.355 48.0588C79.358 48.0249 79.228 47.9923 79.1926 47.7676C79.1706 47.6285 79.2199 47.4629 79.302 47.3997C79.384 47.3364 81.2998 47.2838 83.5594 47.2826C86.9092 47.281 87.691 47.3148 87.7938 47.4653ZM104.625 47.5829C105.677 47.9069 106.166 48.3444 106.769 49.5005C107.3 50.5192 107.391 50.8514 107.39 51.7604C107.388 52.7815 107.049 53.7509 106.427 54.5062C105.993 55.0344 105.121 55.6203 104.764 55.6241C104.657 55.6253 104.504 55.6764 104.424 55.7378C104.328 55.8122 104.568 55.9721 105.144 56.217C105.619 56.4191 106.219 56.6756 106.478 56.787C106.81 56.9301 106.948 57.0657 106.948 57.2477C106.948 57.6344 106.237 57.6474 105.399 57.2761C104.92 57.0638 103.761 56.2038 103.186 55.6332C103.034 55.4824 102.872 55.3576 102.826 55.3559C102.781 55.3543 102.743 55.8071 102.743 56.362C102.743 56.917 102.706 57.3722 102.66 57.3735C102.615 57.3748 101.731 57.3806 100.696 57.3864L98.8153 57.3966L98.7862 52.5075C98.7702 49.8183 98.7836 47.5341 98.816 47.4313C98.8962 47.1778 103.717 47.3036 104.625 47.5829ZM110.328 49.2525C110.284 50.3371 110.222 51.3057 110.191 51.4052C110.152 51.5272 109.928 51.5859 109.502 51.5859H108.87L108.737 49.6687C108.665 48.6143 108.606 47.6455 108.607 47.516C108.608 47.3113 108.725 47.2806 109.508 47.2806H110.408L110.328 49.2525ZM92.6741 52.3258V56.9675H93.1798C93.9735 56.9675 95.21 56.2765 95.8084 55.4987C96.6522 54.4018 96.8242 53.8737 96.8195 52.3931C96.8161 51.2771 96.7767 51.0174 96.5092 50.3462C96.1928 49.5527 95.451 48.638 94.8366 48.2833C94.5221 48.1019 93.1316 47.6919 92.8124 47.6865C92.7044 47.6847 92.6741 48.7009 92.6741 52.3258ZM102.817 48.1776C102.777 48.2268 102.743 49.6424 102.743 51.3232V54.3793L103.137 54.7446C103.515 55.0944 103.559 55.1039 104.187 54.9693C105.603 54.6662 106.433 53.782 106.71 52.2826C106.899 51.2608 106.515 49.7513 105.907 49.129C105.285 48.4922 103.109 47.8221 102.817 48.1776ZM136.539 55.7208C136.583 58.5993 136.583 62.2067 136.539 63.7372L136.46 66.5198H136.041C135.811 66.5198 135.252 66.457 134.798 66.3803C133.03 66.0813 125.367 65.0743 125.289 65.1307C125.243 65.1635 125.206 66.124 125.206 67.2651C125.206 69.3089 125.21 69.341 125.455 69.4014C125.592 69.4351 126.824 69.5907 128.193 69.747C132 70.1818 140.897 71.4018 142.91 71.7651C146.533 72.4191 151.785 73.2637 151.837 73.2006C151.873 73.1575 151.289 72.1058 150.541 70.8637C149.793 69.6215 149.006 68.3025 148.793 67.9325C148.58 67.5625 147.799 66.2305 147.057 64.9726C145.525 62.3758 145.412 62.1474 145.533 61.8926C145.582 61.7914 146.198 60.9598 146.903 60.0444C148.291 58.2437 151.186 54.3747 151.68 53.6622L151.985 53.2221L151.68 53.1465C151.512 53.1051 149.757 52.7948 147.779 52.4571C145.801 52.1196 143.51 51.7236 142.689 51.5775C140.9 51.2593 137.626 50.6844 136.946 50.5694L136.459 50.4869L136.539 55.7208ZM92.3421 67.9321C91.5814 68.0218 90.5108 68.2058 89.9631 68.3411C88.8755 68.6095 87.8984 68.6501 86.5329 68.4838C85.8742 68.4035 85.3787 68.4324 84.5965 68.5968C77.6542 70.0559 72.3188 72.7207 68.4966 76.6383C66.9507 78.2229 66.4101 79.256 65.3086 82.7319C64.4484 85.4463 64.283 87.0036 64.6155 89.257C64.7576 90.2201 64.7523 90.3085 64.5004 91.1977C64.1647 92.3826 64.1554 93.6692 64.4634 96.2803C65.1457 102.063 66.6225 108.572 68.7808 115.311C70.0609 119.308 70.5415 121.579 70.7765 124.742C70.8493 125.722 70.9485 126.525 70.9971 126.525C71.0456 126.525 71.3193 125.995 71.6052 125.347C71.8912 124.7 72.49 123.389 72.936 122.433C73.3819 121.478 73.8964 120.328 74.0794 119.877C74.5329 118.761 76.0537 114.405 76.3122 113.483C76.6239 112.37 77.0941 111.008 77.2315 110.82C77.3239 110.693 77.4685 110.82 77.8458 111.358C79.1393 113.202 81.4012 115.444 82.9879 116.454C83.7879 116.964 83.9417 117.015 84.6582 117.01C85.1926 117.005 85.6046 116.918 85.9348 116.74C86.63 116.364 87.1415 115.802 87.1415 115.413C87.1415 115.008 87.1126 115.009 86.7412 115.428C86.5756 115.615 86.1675 115.864 85.8342 115.981C84.531 116.442 83.4067 115.924 81.9978 114.214C81.0903 113.113 79.8882 111.321 79.34 110.252C78.1544 107.94 77.7797 104.935 78.3414 102.242C78.7667 100.204 79.478 98.9462 80.5577 98.3237C82.1387 97.4123 84.1317 98.4303 85.4264 100.811C85.985 101.838 86.173 101.958 86.0769 101.227C86.0326 100.89 86.0494 100.693 86.1227 100.693C86.1864 100.693 86.6783 100.881 87.2156 101.111C88.3759 101.607 89.5333 102.363 89.6954 102.731C89.81 102.992 89.7906 103.576 89.4604 109.842C89.2088 114.617 89.1806 114.896 88.5158 119.192C88.2776 120.731 86.9791 127.065 86.6404 128.341C86.4372 129.106 86.3493 129.748 86.3363 130.561C86.3202 131.561 86.3551 131.793 86.614 132.41C87.1406 133.664 88.0961 135.08 89.3299 136.434C89.9935 137.163 91.0797 138.366 91.7436 139.107C92.4075 139.849 93.1125 140.595 93.3103 140.765C93.5082 140.934 93.6699 141.151 93.6699 141.246C93.6699 141.341 93.3961 142.532 93.0614 143.892C92.7266 145.253 92.4518 146.579 92.4507 146.839C92.4496 147.098 92.3251 148.189 92.1743 149.262C91.8725 151.408 91.8038 153.494 92.0378 153.399C92.1194 153.366 92.2766 152.657 92.4207 151.672C92.6616 150.027 92.9698 148.627 93.4407 147.042C93.8064 145.811 94.9451 143.037 95.1997 142.758C95.421 142.514 95.4471 142.522 96.4566 143.12C97.0236 143.456 98.0572 144.096 98.7534 144.543C99.4498 144.99 100.545 145.635 101.188 145.978C101.83 146.321 102.53 146.706 102.743 146.834C103.348 147.198 105.473 148.015 106.45 148.26C107.752 148.587 109.755 148.558 110.876 148.197C112.511 147.671 114.726 146.125 114.874 145.407C114.919 145.187 114.803 144.569 114.54 143.634C113.757 140.845 113.369 137.383 113.57 134.975C113.719 133.185 113.73 130.761 113.596 128.946C113.521 127.927 113.432 127.501 113.157 126.844C112.968 126.391 112.813 125.954 112.813 125.872C112.813 125.675 113.33 125.36 113.846 125.242C114.111 125.181 114.329 125.025 114.443 124.814C114.61 124.504 114.602 124.363 114.319 122.658C114.012 120.799 113.82 120.186 113.246 119.223C112.711 118.324 112.775 118.254 114.275 118.099C114.764 118.048 115.261 117.913 115.437 117.783C115.746 117.554 116.557 115.905 116.799 115.012C116.945 114.475 116.917 114.406 114.936 110.38C113.235 106.922 112.607 105.357 112.522 104.364C112.425 103.234 112.514 102.925 113.191 102.055C113.946 101.083 114.077 100.783 113.912 100.407C113.832 100.226 113.812 99.8176 113.856 99.2968C113.936 98.3654 113.755 97.3947 112.803 93.649C112.5 92.4544 112.004 90.3266 111.701 88.9207C111.398 87.5148 111.074 86.132 110.982 85.8478C110.788 85.2476 110.727 85.4383 111.903 82.9564C112.746 81.1774 113.074 80.2318 113.539 78.2389C114.043 76.0759 113.861 75.4006 112.345 73.8218C109.965 71.3441 105.418 69.2346 100.503 68.3276C97.3333 67.743 94.9306 67.6265 92.3421 67.9321ZM89.323 70.009C90.606 70.3172 91.7566 70.7916 92.8954 71.4819C93.975 72.1363 95.083 73.0104 94.9178 73.0774C94.8464 73.1063 93.9513 72.696 92.9288 72.1655C91.9063 71.635 90.3227 70.8993 89.4098 70.5306C88.497 70.1619 87.7294 69.8351 87.7039 69.8045C87.5975 69.6757 88.3117 69.766 89.323 70.009ZM101.047 70.1665C104.086 71.4659 105.662 72.5792 106.06 73.7093C106.466 74.8597 106.448 75.7133 106.04 74.6931C105.802 74.0987 105.086 73.1123 104.893 73.1123C104.697 73.1123 104.693 73.0566 104.953 73.9738C105.294 75.1791 105.405 76.1794 105.305 77.1485C105.203 78.1447 105.16 78.0189 104.96 76.1407C104.789 74.5317 104.381 73.4945 103.556 72.5784C102.874 71.8207 101.665 70.9106 100.567 70.3292C100.182 70.1251 99.8665 69.9109 99.8665 69.8533C99.8665 69.6857 100.014 69.7247 101.047 70.1665ZM95.7041 70.1573C98.0706 71.046 99.5582 72.3549 100.594 74.4599C101.079 75.4444 101.255 76.0879 101.171 76.5632C101.14 76.736 101.014 76.5448 100.76 75.9376C99.6319 73.245 98.2412 71.845 94.9462 70.0846C94.4258 69.8066 94.8883 69.851 95.7041 70.1573ZM110.713 75.8367C110.994 76.2516 111.077 76.9661 110.935 77.7379C110.801 78.4648 110.061 80.512 109.932 80.512C109.886 80.512 109.996 79.9531 110.177 79.2699C110.609 77.6376 110.672 76.9282 110.455 76.1527C110.265 75.4756 110.377 75.3388 110.713 75.8367ZM101.858 82.5836C103.543 82.9688 105.846 83.7079 107.004 84.2347C107.897 84.6415 109.658 85.7834 110.01 86.1846C110.33 86.5494 110.413 86.836 110.867 89.1225C111.08 90.1955 111.6 92.4658 112.023 94.1678C113.352 99.5097 113.343 99.3846 112.536 100.921C111.904 102.126 111.729 103.111 111.91 104.443C112.201 106.585 112.677 107.856 114.822 112.212C115.513 113.615 116.022 114.795 116.022 114.993C116.022 115.396 115.434 116.368 115.001 116.679C114.708 116.89 114.688 116.884 114.337 116.481C113.754 115.814 113.402 115.729 110.844 115.641C108.18 115.549 108.28 115.596 108.278 114.45C108.277 114.061 108.237 113.743 108.189 113.743C108.02 113.743 107.723 114.531 107.723 114.979C107.723 115.52 107.924 115.905 108.601 116.662C108.943 117.044 109.07 117.27 108.994 117.364C108.932 117.439 108.514 117.595 108.065 117.71C106.87 118.015 106.467 118.343 105.883 119.482C105.315 120.591 104.488 122.923 104.02 124.738C103.772 125.7 103.668 125.947 103.559 125.838C103.322 125.598 103.09 124.505 102.963 123.027C102.774 120.815 102.724 120.672 101.764 119.545C100.973 118.618 98.8967 116.254 97.3781 114.553C97.0137 114.145 96.2373 113.235 95.6527 112.532C94.241 110.835 94.1891 110.651 94.1978 107.361C94.2046 104.733 94.3964 102.542 94.8404 100.02C95.2856 97.4909 95.3797 97.1867 95.9058 96.5763C96.3537 96.0566 96.7648 95.7284 99.4832 93.721C100.094 93.27 100.701 92.7621 100.831 92.5926C101.264 92.0314 101.899 90.2087 101.948 89.3881C102.002 88.472 101.921 88.257 100.764 86.2444C99.562 84.1531 98.9858 83.3359 98.3352 82.7991C98.0213 82.5401 97.7644 82.2739 97.7643 82.2076C97.764 81.9951 100.306 82.2287 101.858 82.5836ZM105.205 97.8603C103.48 98.8717 101.832 100.042 101.943 100.177C101.999 100.245 102.355 100.177 102.787 100.015C104.334 99.4338 107.361 99.4249 108.427 99.9985C108.709 100.15 109.221 100.519 109.566 100.82C109.915 101.123 110.32 101.365 110.479 101.364C110.9 101.363 111.897 100.618 112.091 100.16C112.394 99.4495 112.282 99.1795 111.812 99.4855C111.63 99.6037 111.572 99.5518 111.404 99.1207C111.184 98.5566 111.206 98.5672 108.774 97.8088C106.466 97.0889 106.523 97.0881 105.205 97.8603ZM80.8841 99.6714C80.5162 99.8662 80.0418 100.488 79.7652 101.139C79.3323 102.157 78.9672 104.632 79.2852 104.393C79.346 104.347 79.3958 104.191 79.3958 104.045C79.3958 103.589 79.8008 102.355 80.1572 101.725C80.8204 100.553 81.7153 100.232 82.3905 100.923C82.7463 101.287 83.3791 102.708 83.3792 103.143C83.3793 103.27 83.0368 103.837 82.6181 104.403C81.431 106.008 81.148 107.001 81.5469 108.161C81.9203 109.248 83.4846 110.787 84.7569 111.319C85.9395 111.814 86.4776 111.618 86.4776 110.693C86.4776 110.065 86.3728 109.885 85.6753 109.316C85.3863 109.08 85.1497 108.871 85.1497 108.851C85.1497 108.431 84.8616 107.154 84.7251 106.968C84.5702 106.758 84.5411 106.386 84.5411 104.614C84.5411 102.703 84.5177 102.447 84.2869 101.837C83.9729 101.006 83.2481 100.071 82.6601 99.7384C82.1439 99.4464 81.3644 99.417 80.8841 99.6714ZM106.551 101.294C105.387 101.551 104.182 102.135 104.182 102.442C104.182 102.653 106.019 103.981 106.838 104.363C107.294 104.576 107.73 104.848 107.806 104.968C107.914 105.137 107.975 105.15 108.077 105.025C108.18 104.899 108.179 104.758 108.07 104.394C107.883 103.764 108.112 103.293 108.898 102.69C109.492 102.234 109.798 101.773 109.671 101.524C109.571 101.328 108.583 101.095 107.911 101.109C107.594 101.115 106.982 101.199 106.551 101.294ZM106.878 102.946C106.839 103.372 106.789 103.745 106.767 103.776C106.717 103.847 106.251 103.592 105.637 103.159C105.275 102.903 105.187 102.78 105.282 102.664C105.479 102.424 106.076 102.194 106.534 102.183L106.95 102.173L106.878 102.946ZM80.9323 110.481C81.3931 111.506 83.2264 113.014 84.312 113.262C85.08 113.437 84.7407 112.982 83.4623 112.123C82.7777 111.663 81.9582 111.052 81.6413 110.766C81.0129 110.198 80.7595 110.096 80.9323 110.481ZM68.2404 130.156C68.0386 130.214 67.756 130.396 67.6123 130.56C67.3194 130.894 66.4378 132.877 65.6522 134.968C65.3657 135.73 64.93 136.703 64.684 137.129C64.4379 137.556 64.2365 137.978 64.2365 138.067C64.2365 138.164 64.3981 138.23 64.6373 138.23C65.4843 138.23 67.4372 138.669 68.4968 139.097C69.7778 139.616 71.4966 140.653 72.4544 141.485C73.433 142.335 76.3572 145.102 77.1478 145.926C78.5597 147.396 82.2784 151.544 83.9425 153.503C86.7523 156.813 89.428 159.498 91.5676 161.155C93.0105 162.272 93.7453 162.753 93.9106 162.686C94.0474 162.63 93.3805 161.586 92.2797 160.133C91.6073 159.245 90.6766 157.745 89.4426 155.56C89.3302 155.361 88.7672 154.195 88.1916 152.97C87.0732 150.589 84.969 146.738 83.704 144.755C81.6971 141.61 79.5417 139.094 75.9811 135.741C75.0163 134.832 72.4525 132.898 71.1609 132.105C69.8535 131.303 69.4371 130.879 69.4371 130.351C69.4371 130.059 69.3915 130.024 69.0222 130.036C68.794 130.044 68.4421 130.098 68.2404 130.156ZM136.599 131.2C136.461 131.625 136.26 132.216 136.154 132.512C136.047 132.808 135.535 134.321 135.016 135.875C134.497 137.429 133.545 140.275 132.9 142.199C131.86 145.302 131.742 145.735 131.857 146.033C131.927 146.218 132.1 146.721 132.241 147.15L132.497 147.931L132.043 149.212C131.793 149.917 131.484 150.578 131.357 150.679C130.993 150.969 128.661 152.437 125.04 154.655C123.214 155.774 121.562 156.834 121.369 157.011C121.047 157.306 121.027 157.368 121.121 157.784C121.222 158.23 123.096 162.492 123.3 162.74C123.48 162.958 123.796 162.451 123.727 162.055C123.693 161.863 123.365 161.011 122.997 160.16C122.383 158.741 122.343 158.598 122.517 158.443C122.622 158.349 122.753 158.291 122.81 158.314C122.866 158.337 123.242 159.12 123.644 160.054C124.047 160.988 124.412 161.796 124.456 161.849C124.5 161.903 124.611 161.872 124.701 161.781C124.844 161.637 124.76 161.369 124.087 159.814C123.659 158.824 123.34 157.952 123.378 157.876C123.552 157.535 123.761 157.858 124.47 159.555C124.887 160.554 125.261 161.37 125.3 161.368C125.34 161.367 125.441 161.313 125.524 161.249C125.646 161.155 125.528 160.774 124.944 159.377C124.54 158.412 124.21 157.522 124.21 157.4C124.21 156.889 124.516 157.384 125.213 159.025C125.897 160.633 126.185 161.057 126.36 160.713C126.397 160.639 126.095 159.796 125.689 158.839C125.19 157.664 124.975 157.02 125.027 156.856C125.145 156.483 125.317 156.774 126.093 158.646C126.607 159.886 126.828 160.294 126.987 160.294C127.103 160.294 127.198 160.233 127.198 160.158C127.198 160.083 126.874 159.236 126.478 158.276C126.083 157.316 125.759 156.469 125.759 156.394C125.759 156.319 125.849 156.258 125.96 156.258C126.106 156.258 126.364 156.748 126.915 158.074C127.33 159.073 127.707 159.891 127.752 159.891C127.797 159.891 127.888 159.813 127.953 159.717C128.04 159.589 127.888 159.103 127.358 157.827C126.616 156.042 126.532 155.72 126.809 155.72C126.912 155.72 127.263 156.427 127.727 157.57L128.48 159.42L128.286 160.092C128.04 160.948 128.03 162.353 128.265 163.238C128.744 165.04 130.369 166.187 131.801 165.734C132.133 165.629 132.593 165.426 132.822 165.284C134.107 164.487 135.08 162.191 134.879 160.429C134.842 160.096 134.559 159.157 134.251 158.343C133.914 157.451 133.684 156.65 133.674 156.325C133.664 156.029 133.57 155.589 133.466 155.348C133.241 154.828 133.05 153.702 133.186 153.702C133.238 153.702 133.482 154.187 133.727 154.781C134.131 155.757 134.195 155.847 134.392 155.718C134.513 155.64 134.611 155.56 134.611 155.54C134.611 155.521 134.36 154.933 134.053 154.233C133.343 152.615 133.065 151.859 133.146 151.761C133.341 151.524 133.547 151.842 134.166 153.332C134.938 155.189 135.039 155.359 135.269 155.186C135.401 155.087 135.296 154.743 134.688 153.269C133.922 151.412 133.847 151.145 134.091 151.145C134.171 151.145 134.569 151.963 134.976 152.962C135.664 154.647 135.913 155.021 136.102 154.65C136.138 154.579 135.839 153.725 135.437 152.751C134.764 151.116 134.645 150.607 134.939 150.607C135.002 150.607 135.387 151.425 135.795 152.424C136.493 154.131 136.716 154.461 136.967 154.156C137.005 154.11 136.681 153.227 136.248 152.194C135.621 150.701 135.491 150.291 135.613 150.2C135.698 150.136 135.816 150.136 135.88 150.201C135.943 150.265 136.316 151.109 136.71 152.077C137.104 153.044 137.452 153.835 137.485 153.834C137.517 153.833 137.617 153.775 137.708 153.706C137.845 153.6 137.749 153.281 137.127 151.77C136.717 150.774 136.382 149.889 136.382 149.803C136.382 149.716 136.469 149.666 136.575 149.691C136.697 149.719 137.028 150.36 137.467 151.416C137.851 152.34 138.21 153.151 138.265 153.218C138.324 153.291 138.431 153.273 138.53 153.173C138.674 153.027 138.593 152.765 137.916 151.187C137.346 149.861 137.168 149.328 137.257 149.22C137.443 148.994 137.606 149.272 138.369 151.112C139.008 152.652 139.288 153.043 139.429 152.592C139.458 152.499 139.141 151.637 138.724 150.675C138.199 149.46 138 148.874 138.073 148.757C138.132 148.665 138.212 148.589 138.253 148.589C138.293 148.589 138.673 149.405 139.097 150.403C139.521 151.401 139.931 152.218 140.009 152.219C140.342 152.225 140.229 151.732 139.517 150.075C138.885 148.605 138.788 148.295 138.926 148.189C139.017 148.119 139.13 148.11 139.178 148.168C139.225 148.226 139.583 149.026 139.973 149.945C140.635 151.507 140.906 151.901 141.081 151.557C141.12 151.478 140.798 150.597 140.365 149.597C139.704 148.073 139.606 147.766 139.757 147.696C139.999 147.583 140.015 147.609 140.812 149.497C141.459 151.029 141.729 151.406 141.866 150.97C141.896 150.874 141.595 150.042 141.197 149.121C140.799 148.201 140.497 147.371 140.526 147.278C140.658 146.86 140.915 147.232 141.617 148.86C142.307 150.462 142.563 150.829 142.742 150.478C142.778 150.407 142.456 149.537 142.027 148.545C141.382 147.054 141.273 146.715 141.4 146.588C141.602 146.384 141.641 146.449 142.393 148.253C143.175 150.128 143.292 150.326 143.481 150.1C143.597 149.96 143.485 149.592 142.879 148.114C142.47 147.116 142.136 146.239 142.136 146.166C142.136 146.093 142.205 146.033 142.29 146.033C142.377 146.033 142.772 146.824 143.197 147.849C143.901 149.548 144.118 149.877 144.298 149.521C144.339 149.441 144.034 148.562 143.622 147.567C143.047 146.181 142.902 145.72 143.002 145.599C143.184 145.377 143.24 145.474 144.019 147.355C144.396 148.267 144.778 149.046 144.866 149.088C145.273 149.278 145.18 148.819 144.458 147.087C143.841 145.604 143.721 145.222 143.84 145.102C144.034 144.906 144.107 145.021 144.688 146.437C145.454 148.299 145.674 148.716 145.849 148.635C145.937 148.594 146.008 148.502 146.008 148.432C146.008 148.361 145.685 147.519 145.289 146.561C144.894 145.603 144.57 144.759 144.57 144.686C144.57 144.613 144.658 144.553 144.765 144.553C144.906 144.553 145.17 145.064 145.705 146.369C146.115 147.368 146.494 148.186 146.548 148.186C146.601 148.186 146.697 148.11 146.76 148.017C146.843 147.895 146.666 147.351 146.115 146.033C145.408 144.342 145.307 143.864 145.697 144.048C145.777 144.086 146.166 144.911 146.562 145.882C147.057 147.097 147.333 147.634 147.447 147.608C147.735 147.541 147.595 146.967 146.899 145.36C146.225 143.806 146.162 143.477 146.535 143.477C146.68 143.477 146.877 143.824 147.23 144.708C147.992 146.611 148.278 147.109 148.61 147.109C148.765 147.109 148.915 147.034 148.942 146.941C149.011 146.708 146.884 141.709 146.642 141.534C146.483 141.418 145.695 141.853 142.437 143.858C140.233 145.215 137.333 147.014 135.994 147.857C134.656 148.7 133.506 149.391 133.44 149.393C133.369 149.395 133.722 147.445 134.285 144.721C135.833 137.232 137.046 131.091 137.046 130.746C137.046 130.203 136.862 130.39 136.599 131.2ZM38.7604 131.629C38.0098 131.923 37.0721 132.972 37.3067 133.254C37.3598 133.318 38.1253 133.867 39.0078 134.475C40.6052 135.574 40.7733 135.723 40.7766 136.043C40.7792 136.312 40.3993 136.239 39.9751 135.889C39.0836 135.153 37.0086 133.779 36.9057 133.857C36.6458 134.052 36.8438 134.337 37.597 134.852C39.8481 136.391 40.7811 137.282 40.0494 137.192C39.8012 137.162 37.8703 135.832 37.8091 135.649C37.7887 135.588 37.7255 135.539 37.6686 135.539C37.6116 135.539 37.3677 135.387 37.1267 135.202C36.8857 135.017 36.6157 134.866 36.5269 134.866C36.2799 134.866 36.1863 135.158 36.3799 135.324C36.4746 135.405 36.6518 135.556 36.7734 135.66C36.8951 135.764 37.6095 136.283 38.3608 136.813C39.6253 137.706 40.087 138.23 39.6088 138.23C39.5045 138.23 38.6745 137.711 37.7644 137.077C36.2182 135.999 35.7927 135.818 35.8031 136.241C35.8054 136.336 36.386 136.807 37.0932 137.288C39.319 138.802 39.5955 139.061 39.1889 139.25C39.1059 139.289 38.2547 138.772 37.2972 138.102C36.3396 137.432 35.5085 136.92 35.4501 136.964C35.1746 137.171 35.5375 137.541 37.0698 138.615C38.0613 139.31 38.7431 139.872 38.7655 140.012C38.8336 140.443 38.4506 140.267 36.7685 139.095C35.2483 138.035 34.7071 137.803 34.8292 138.263C34.8538 138.356 35.521 138.885 36.312 139.44C38.0869 140.686 38.3439 140.891 38.3439 141.062C38.3439 141.442 37.8899 141.232 36.2939 140.115C35.1641 139.325 34.5078 138.938 34.4384 139.023C34.2288 139.278 34.4629 139.535 35.6817 140.391C36.3601 140.867 37.1122 141.397 37.3529 141.57C37.7674 141.866 37.9669 142.4 37.6629 142.4C37.5096 142.4 36.2097 141.533 35.7435 141.119C35.561 140.957 35.1013 140.621 34.7222 140.372C34.2088 140.035 34.0009 139.958 33.9075 140.072C33.8386 140.156 33.8107 140.28 33.8456 140.349C33.9104 140.477 35.1067 141.38 36.5458 142.388C37.32 142.931 37.5749 143.342 37.137 143.342C36.9368 143.342 34.5887 141.77 33.9067 141.18C33.5634 140.883 33.3645 140.929 33.3645 141.306C33.3645 141.469 33.8985 141.912 35.0982 142.745C36.0517 143.407 36.8526 144.024 36.8778 144.116C37.01 144.598 36.4571 144.365 34.8994 143.283C33.3172 142.183 32.8666 141.981 32.8666 142.369C32.8666 142.461 33.6384 143.073 34.5817 143.728C36.1868 144.843 36.6839 145.36 36.1511 145.36C36.0316 145.36 35.1955 144.845 34.2932 144.215C33.391 143.585 32.6012 143.091 32.5384 143.116C32.1421 143.277 32.4813 143.633 34.0994 144.758C35.055 145.422 35.8573 146.041 35.8823 146.134C35.9074 146.226 35.8504 146.338 35.7557 146.382C35.6084 146.451 35.0297 146.081 32.1252 144.061C32.0826 144.032 31.9961 144.125 31.933 144.268C31.8294 144.503 31.9667 144.632 33.3343 145.584C34.1681 146.164 34.9019 146.663 34.965 146.694C35.1264 146.772 35.3485 147.145 35.3527 147.345C35.3591 147.652 34.9769 147.516 34.2497 146.953C33.2543 146.182 31.6918 145.091 31.5821 145.091C31.1691 145.091 31.073 147.263 31.4484 148.118C31.7916 148.901 32.0972 149.195 34.3051 150.869C35.4005 151.7 36.7449 152.735 37.2927 153.169C37.8404 153.602 38.3222 153.96 38.3635 153.964C38.4046 153.968 38.5991 153.623 38.7958 153.197C39.5799 151.5 46.2784 137.466 46.7626 136.506C46.9079 136.218 46.8958 136.174 46.5982 135.901C46.3169 135.643 44.9734 134.694 42.9913 133.354C42.6565 133.127 41.9417 132.641 41.4027 132.273C40.5797 131.711 40.3138 131.596 39.743 131.557C39.3691 131.531 38.9269 131.563 38.7604 131.629ZM142.855 140.049C141.759 140.595 140.714 141.136 140.531 141.25C140.349 141.364 139.029 142.03 137.599 142.73C136.169 143.43 134.963 144.081 134.919 144.177C134.79 144.459 134.271 147.009 134.328 147.079C134.357 147.114 134.644 146.932 134.966 146.673C135.288 146.415 136.224 145.732 137.046 145.155C137.867 144.578 138.988 143.791 139.535 143.406C140.083 143.021 141.029 142.335 141.638 141.883C142.246 141.43 143.328 140.65 144.041 140.149C144.754 139.648 145.339 139.193 145.341 139.138C145.35 138.89 144.71 139.125 142.855 140.049ZM62.4607 141.849C60.7244 142.736 60.1156 143.103 60.0629 143.296C60.0405 143.377 60.917 143.611 62.2138 143.869C65.0031 144.425 66.4845 144.861 67.4819 145.421C67.9183 145.666 68.574 146.02 68.9392 146.208C71.0409 147.289 76.557 151.238 77.8827 152.612C79.0199 153.79 83.5817 157.671 83.6835 157.548C83.7696 157.443 83.2733 156.768 81.4028 154.447C79.1314 151.629 78.2746 150.675 76.0395 148.473C73.0702 145.548 72.2117 144.89 68.9083 143.01C66.4788 141.627 65.1398 141.047 64.4244 141.069C64.1296 141.078 63.4122 141.363 62.4607 141.849ZM133.389 145.285C133.618 145.621 133.485 146.214 133.148 146.358C132.599 146.591 132.165 145.797 132.572 145.303C132.789 145.038 133.214 145.029 133.389 145.285ZM120.308 146.045C119.256 146.346 118.086 147.543 117.593 148.824C117.175 149.909 117.178 151.31 117.601 152.308C118.17 153.649 119.215 154.374 120.581 154.374C121.607 154.374 122.53 153.89 124.556 152.29C124.837 152.067 126.442 150.918 128.122 149.735C129.803 148.552 131.289 147.482 131.426 147.357C131.669 147.134 131.671 147.114 131.498 146.547C131.394 146.206 131.258 145.978 131.168 145.995C131.036 146.021 129.569 146.644 129.079 146.883C128.987 146.928 128.43 147.027 127.84 147.104C126.744 147.246 124.973 147.115 124.268 146.839C121.806 145.876 121.272 145.769 120.308 146.045ZM122.427 147.64C122.707 147.813 122.977 148.133 123.154 148.5C124.089 150.44 122.547 153.095 120.492 153.081C118.074 153.066 117.555 149.391 119.749 147.827C120.022 147.633 120.402 147.425 120.595 147.365C121.113 147.205 121.921 147.326 122.427 147.64ZM130.244 154.359C130.145 154.74 130.027 154.717 129.865 154.286C129.758 154 129.76 153.906 129.875 153.82C130.088 153.66 130.333 154.019 130.244 154.359ZM129.579 154.918C129.837 155.537 129.86 155.854 129.648 155.854C129.531 155.854 128.969 154.418 129.049 154.321C129.196 154.142 129.308 154.269 129.579 154.918ZM128.997 155.784C129.364 156.686 129.434 157.2 129.19 157.2C129.091 157.2 128.193 155.151 128.193 154.926C128.193 154.844 128.282 154.778 128.39 154.778C128.525 154.778 128.717 155.095 128.997 155.784ZM128.352 156.718C128.897 157.954 129.03 158.547 128.762 158.545C128.634 158.544 127.403 155.457 127.475 155.315C127.594 155.08 127.715 155.274 128.352 156.718ZM132.886 158.656C134.027 159.606 134.122 161.793 133.088 163.307C131.964 164.953 130.225 164.917 129.463 163.232C128.207 160.453 130.832 156.945 132.886 158.656ZM60.6872 170.153C60.5914 170.318 59.948 171.572 59.2577 172.941C58.5673 174.31 57.5703 176.278 57.0421 177.313C55.866 179.62 55.6836 180.043 55.7601 180.285C55.8909 180.7 56.2535 180.48 56.5569 179.802L56.858 179.13H58.8828H60.9076L61.1994 179.735L61.4912 180.341H63.6384C64.8548 180.341 65.7856 180.287 65.7856 180.218C65.7856 180.151 65.346 179.167 64.8085 178.032C64.2712 176.897 63.1898 174.591 62.4056 172.907C61.6213 171.224 60.9531 169.848 60.9207 169.851C60.8881 169.853 60.7831 169.989 60.6872 170.153ZM98.7318 170.743C98.1097 171.888 96.814 174.442 96.4908 175.161C96.3577 175.457 95.7681 176.645 95.1807 177.801C94.0904 179.946 93.9238 180.475 94.3384 180.475C94.4899 180.475 94.6777 180.253 94.9083 179.802L95.2522 179.13H97.2744H99.2966L99.556 179.702L99.8152 180.273L101.999 180.31C103.199 180.33 104.182 180.305 104.182 180.254C104.182 180.163 103.434 178.551 102.85 177.381C102.56 176.8 102.211 176.046 101.699 174.892C101.097 173.536 99.4885 170.165 99.367 170.004C99.2571 169.858 99.1377 169.997 98.7318 170.743ZM123.576 172.436C122.851 173.861 121.724 176.075 121.072 177.357C120.419 178.638 119.857 179.864 119.821 180.081C119.764 180.428 119.787 180.475 120.019 180.475C120.219 180.475 120.356 180.314 120.592 179.802L120.903 179.13H122.939H124.975L125.267 179.735L125.559 180.341H127.718C129.729 180.341 129.872 180.324 129.803 180.105C129.762 179.976 129.244 178.84 128.652 177.583C128.059 176.325 127.004 174.071 126.307 172.574C125.61 171.078 125.007 169.852 124.967 169.85C124.928 169.848 124.302 171.012 123.576 172.436ZM47.0854 175.351V180.341H49.8433C52.9924 180.341 53.5166 180.247 54.1731 179.563C54.7294 178.984 54.9417 178.49 54.9417 177.773C54.9417 177.166 54.6194 176.389 54.3065 176.243C54.1489 176.17 54.1781 176.099 54.4887 175.804C55.2258 175.102 55.4864 173.591 55.065 172.462C54.8122 171.786 54.1401 171.073 53.4322 170.729C52.9605 170.501 52.5385 170.462 49.99 170.415L47.0854 170.362V175.351ZM66.7538 170.461C66.7081 170.518 66.6708 172.765 66.6708 175.455V180.347L68.6349 180.31L70.599 180.273L70.6315 179.298C70.6493 178.762 70.6856 178.323 70.7122 178.323C70.7386 178.323 71.1077 178.631 71.5324 179.008C72.9139 180.233 74.8591 180.931 74.8591 180.202C74.8591 180.051 74.7969 179.907 74.7208 179.881C73.9576 179.617 72.3484 178.944 72.272 178.856C72.2185 178.795 72.3679 178.701 72.604 178.647C73.974 178.335 75.0255 177.022 75.2915 175.29C75.4274 174.406 75.2012 173.422 74.6273 172.4C73.6578 170.673 73.2184 170.5 69.6031 170.42C68.0816 170.386 66.7995 170.404 66.7538 170.461ZM76.6816 170.548C76.6491 170.651 76.6366 172.881 76.6537 175.504L76.6848 180.273H79.7278C82.5151 180.273 82.807 180.251 83.2026 180.013C84.2064 179.407 84.7661 178.218 84.4928 177.272C84.4138 176.999 84.2238 176.612 84.0703 176.412L83.7914 176.049L84.1427 175.69C84.7744 175.044 85.0214 173.908 84.7616 172.845C84.6346 172.325 84.4613 172.011 84.0585 171.573C83.1186 170.549 82.8426 170.477 79.5897 170.415C77.2298 170.371 76.7304 170.393 76.6816 170.548ZM86.0761 175.327L86.0903 180.273H89.9631C93.7621 180.273 93.8359 180.268 93.8359 180.004C93.8359 179.748 93.7438 179.732 91.9548 179.668L90.0738 179.601L90.0439 176.674L90.0141 173.748H91.7749C93.2989 173.748 93.5449 173.719 93.6047 173.529C93.7639 173.025 93.4946 172.941 91.7149 172.941H90.0084L90.041 172.033L90.0738 171.125L91.6782 171.057C93.1905 170.994 93.2827 170.975 93.2827 170.721C93.2827 170.458 93.1991 170.451 89.6723 170.416L86.062 170.381L86.0761 175.327ZM105.067 175.363V180.341H107.004H108.94V179.332C108.94 178.777 108.979 178.323 109.026 178.323C109.073 178.323 109.384 178.573 109.717 178.88C111.028 180.087 113.022 180.887 113.212 180.284C113.306 179.987 113.246 179.931 112.622 179.725C111.765 179.443 110.603 178.935 110.601 178.842C110.6 178.795 110.787 178.714 111.015 178.663C112.1 178.418 113.209 177.183 113.532 175.859C113.853 174.543 113.724 173.771 112.94 172.338C112.031 170.676 111.217 170.392 107.363 170.387L105.067 170.385V175.363ZM115.026 175.363V180.341H117.018H119.009V175.363V170.385H117.018H115.026V175.363ZM52.5468 171.264C53.3669 171.391 54.1493 171.98 54.455 172.698C54.785 173.474 54.5431 175.046 54.0438 175.371C53.7624 175.554 52.8328 175.588 52.2584 175.437C51.8798 175.337 51.8434 175.353 51.8434 175.616C51.8434 176.036 52.4478 176.438 53.0798 176.438C53.4742 176.439 53.6776 176.522 53.9373 176.787C54.2312 177.088 54.2778 177.225 54.2778 177.787C54.2778 178.337 54.2219 178.51 53.9182 178.901C53.6167 179.288 53.4333 179.39 52.784 179.528C52.358 179.619 51.8102 179.673 51.5668 179.647L51.1242 179.601L51.0949 175.439C51.0631 170.922 51.0514 171.009 51.6775 171.121C51.86 171.153 52.2513 171.218 52.5468 171.264ZM81.8005 171.192C83.1292 171.402 83.9016 172.047 84.1583 173.162C84.3274 173.896 84.1395 174.847 83.7523 175.218C83.3942 175.56 82.6048 175.683 82.0531 175.482C81.5561 175.301 81.3298 175.427 81.4526 175.816C81.562 176.162 82.092 176.439 82.6461 176.439C83.8572 176.439 84.2923 177.9 83.4143 179.019C83.0976 179.423 82.0267 179.719 81.1553 179.643L80.6683 179.601L80.639 175.499C80.6228 173.242 80.6338 171.32 80.6632 171.227C80.726 171.028 80.7558 171.027 81.8005 171.192ZM73.0981 171.637C73.773 172.004 74.0645 172.345 74.42 173.183C74.7249 173.901 74.7485 175.17 74.4725 176C74.1257 177.043 73.1424 177.837 72.0045 177.994C71.3317 178.086 71.3195 178.082 70.9319 177.611C70.5793 177.182 70.5446 177.075 70.5877 176.551C70.614 176.23 70.6398 174.884 70.6449 173.56L70.6543 171.152L71.5766 171.231C72.2011 171.285 72.6924 171.416 73.0981 171.637ZM111.514 171.667C111.833 171.861 112.186 172.122 112.299 172.245C112.925 172.93 113.218 174.738 112.879 175.818C112.506 177.003 111.551 177.836 110.376 177.997C109.79 178.078 109.7 178.054 109.337 177.717L108.94 177.349V176.108C108.94 175.425 108.973 174.032 109.013 173.011L109.086 171.155L110.01 171.234C110.692 171.293 111.085 171.406 111.514 171.667ZM59.2274 175.194C59.3693 175.601 60.0009 177.004 60.3582 177.706C60.4829 177.952 60.585 178.191 60.585 178.238C60.585 178.284 59.8381 178.323 58.9252 178.323C58.0123 178.323 57.2654 178.303 57.2654 178.279C57.2654 178.256 57.5268 177.753 57.8463 177.162C58.1659 176.571 58.5471 175.803 58.6936 175.456C58.8401 175.109 58.991 174.824 59.029 174.824C59.0669 174.824 59.1562 174.991 59.2274 175.194ZM98.1381 176.449C98.541 177.343 98.8706 178.13 98.8706 178.198C98.8706 178.268 98.1713 178.323 97.2661 178.323C96.3837 178.323 95.6617 178.288 95.6617 178.246C95.6617 178.204 95.8022 177.916 95.9738 177.607C96.1456 177.297 96.5261 176.545 96.8195 175.934C97.113 175.324 97.3648 174.824 97.3792 174.824C97.3937 174.824 97.7352 175.556 98.1381 176.449ZM123.867 176.521C124.299 177.454 124.653 178.241 124.653 178.27C124.653 178.299 123.906 178.323 122.993 178.323C122.08 178.323 121.333 178.293 121.333 178.258C121.333 178.222 121.582 177.743 121.886 177.192C122.191 176.641 122.44 176.163 122.44 176.13C122.44 176.041 123.005 174.824 123.047 174.824C123.066 174.824 123.436 175.588 123.867 176.521Z" fill="#D5B853"/>
</svg>
