<svg width="95" height="113" viewBox="0 0 95 113" fill="none" xmlns="http://www.w3.org/2000/svg">
<path fill-rule="evenodd" clip-rule="evenodd" d="M47.154 0.21616C47.0555 0.351961 46.5281 1.18672 45.9821 2.07111C44.6796 4.18056 43.7798 5.23744 42.6775 5.95263C41.7739 6.53888 41.4451 6.69055 40.7807 6.82752C40.2501 6.93693 39.9599 6.9411 37.9179 6.86808C36.0747 6.80215 35.5314 6.75896 35.0414 6.63931C34.5489 6.51908 34.097 6.4837 32.5947 6.44767L30.7521 6.40352L29.8761 6.63595C29.3943 6.76371 28.6195 7.01616 28.1543 7.19691C27.2233 7.55864 25.7124 8.41722 25.1259 8.91789C24.9222 9.0917 24.5008 9.44523 24.1895 9.70346C23.5913 10.1996 22.2879 11.6452 22.0263 12.1027C21.9411 12.2519 21.6746 12.6813 21.4342 13.0571C20.5866 14.3817 19.7806 16.5138 19.3978 18.4433C19.2205 19.3374 19.1914 19.6219 19.1675 20.6981C19.1374 22.0539 19.1362 22.0582 18.752 22.0601C18.6313 22.0607 17.9517 22.1923 17.2417 22.3525C15.5647 22.7308 13.7968 23.3982 12.8585 24.007C11.1684 25.1038 9.75795 26.7456 8.43954 29.151C7.80351 30.3114 7.69573 30.5589 7.27821 31.8187C6.5837 33.9143 6.25438 35.9322 6.25438 38.0917C6.25438 38.5414 6.31951 39.2297 6.43997 40.0525C6.59741 41.1277 6.63269 41.5983 6.67214 43.1477C6.76373 46.7429 6.55597 48.9533 5.99896 50.3105C5.57733 51.3379 5.00026 52.3061 4.34369 53.0879L3.72982 53.8188L1.88552 54.939C0.871116 55.5552 0.0256888 56.1082 0.00671898 56.1679C-0.0122509 56.2277 0.0103439 56.3657 0.0569227 56.4747C0.123076 56.6295 0.238586 56.71 0.585118 56.8427C0.829008 56.9361 1.59952 57.3551 2.2973 57.7738C3.44455 58.4622 3.61703 58.5906 4.09961 59.1159C4.8369 59.9183 5.3216 60.7124 5.81862 61.9318C6.13471 62.7074 6.29269 63.2116 6.47115 64.0149L6.70658 65.0747L6.70223 67.7425C6.69836 70.13 6.68465 70.4948 6.57156 71.2142C6.32223 72.8016 6.29238 75.1808 6.49779 77.098C6.62218 78.2586 6.67287 78.5137 7.04544 79.8521C7.43656 81.257 7.48851 81.3925 8.13814 82.7026C8.57052 83.5744 8.98646 84.3088 9.27421 84.7083C9.5239 85.0549 9.89128 85.5672 10.0906 85.8469C10.4625 86.3684 12.0673 87.9359 12.4288 88.1305C12.5384 88.1895 12.8999 88.3927 13.2321 88.5819C14.9988 89.5882 16.3978 90.041 18.1455 90.172C18.6548 90.2101 19.0896 90.2631 19.1117 90.2898C19.1336 90.3165 19.1703 90.9896 19.193 91.7855C19.2307 93.1099 19.2527 93.322 19.4512 94.2834C19.7587 95.7725 20.4237 97.5903 21.0863 98.7524C22.1652 100.645 22.6698 101.279 24.1972 102.66C24.5461 102.976 25.049 103.392 25.3149 103.584C25.5807 103.777 25.9613 104.057 26.1606 104.207C26.4999 104.462 27.0877 104.782 27.7918 105.096C28.4594 105.394 30.0356 105.809 30.7985 105.888C32.3519 106.05 35.0614 105.942 36.1278 105.676C36.7679 105.517 39.4174 105.341 40.237 105.403C40.8413 105.448 41.4575 105.694 42.4265 106.274C43.0547 106.65 43.2787 106.836 43.914 107.506C44.7347 108.372 45.1921 108.973 46.083 110.354C47.0335 111.828 47.2493 112.13 47.3986 112.197C47.6238 112.297 47.8452 112.198 47.9687 111.941C48.0308 111.812 48.1923 111.555 48.3278 111.37C48.4633 111.185 48.7355 110.757 48.9329 110.42C49.813 108.914 50.3664 108.191 51.4932 107.074C52.0142 106.557 52.8184 106.017 53.4978 105.727L54.1321 105.456L55.9257 105.456C57.6239 105.457 57.7669 105.468 58.6141 105.658L59.5089 105.859L62.2275 105.849L64.9461 105.84L65.8474 105.571C66.7738 105.294 68.4706 104.517 68.8929 104.176C69.0149 104.078 69.6151 103.602 70.2269 103.118C71.231 102.325 72.2895 101.301 72.5256 100.894C72.574 100.811 72.7786 100.512 72.9803 100.231C73.7581 99.1454 74.8012 96.9234 75.1247 95.6629C75.3606 94.7435 75.6647 92.8601 75.8543 91.1436C75.8958 90.7685 75.9649 90.4189 76.0079 90.3668C76.0575 90.3069 76.3477 90.2534 76.7991 90.2209C77.2723 90.1867 77.7357 90.0987 78.1767 89.959C79.2098 89.6317 80.9266 88.9781 81.2276 88.7975C81.3771 88.7078 81.731 88.5113 82.014 88.3608C82.8324 87.9256 83.8821 87.024 84.5872 86.1504C85.2117 85.3768 86.35 83.6754 86.7923 82.8548C87.0957 82.2917 87.8188 80.507 87.9846 79.912C88.5204 77.9887 88.547 77.8251 88.5972 76.1488C88.6629 73.9532 88.5389 70.9952 88.3491 70.2275C88.2241 69.7222 88.2132 69.5308 88.2105 67.779L88.2075 65.8787L88.4298 64.5996C88.8865 61.9721 89.6607 60.3189 91.1012 58.8951C91.8178 58.1868 92.5643 57.6973 93.8382 57.1003C94.591 56.7475 95.0028 56.4553 95 56.2759C94.9973 56.1034 94.5618 55.7411 93.978 55.4256C93.6973 55.2738 93.439 55.1216 93.404 55.0872C93.3691 55.0527 92.8654 54.738 92.2847 54.3877L91.2289 53.7507L90.5629 52.9442C89.8281 52.0544 89.5845 51.6014 89.0441 50.1194C88.8367 49.5505 88.648 48.8513 88.4723 47.9998L88.2101 46.7291L88.2105 44.8288C88.211 43.1018 88.232 42.7083 88.4408 40.5164C88.6614 38.2011 88.669 38.043 88.63 36.5696C88.591 35.0875 88.5812 34.997 88.3485 33.9384C88.1996 33.2609 87.9897 32.5348 87.7991 32.038C86.7337 29.2612 86.6639 29.1212 85.4775 27.3819C84.5696 26.0508 83.8904 25.3315 82.535 24.2655C82.0452 23.8803 80.8162 23.1923 80.1715 22.9425C79.2173 22.5726 77.6303 22.1567 76.8014 22.0591C76.0962 21.9761 76.0278 21.9551 76.0017 21.8137C75.977 21.6801 75.8397 20.62 75.603 18.7356C75.4255 17.3234 74.5852 14.8697 73.8213 13.5335C72.9449 12.0001 72.4554 11.3251 71.501 10.3332C70.7366 9.53879 70.4145 9.26017 69.4414 8.55105C68.2239 7.66389 67.5081 7.33922 65.4596 6.74514L64.342 6.42092L62.8619 6.42055C61.3007 6.42004 60.3424 6.49788 59.6725 6.67958C59.1877 6.81107 57.1409 6.93306 55.4439 6.93167L54.2184 6.93065L53.4805 6.6339C53.0746 6.47062 52.6474 6.26085 52.5311 6.16773C52.4149 6.07454 52.1699 5.88487 51.9868 5.74615C51.4068 5.30681 50.4603 4.33266 50.0736 3.77696C49.8682 3.48189 49.5233 2.93737 49.307 2.56688C48.7667 1.6412 47.8935 0.239476 47.7966 0.142193C47.7527 0.098047 47.6304 0.0411097 47.5249 0.0156013C47.3592 -0.0245252 47.3087 0.00281048 47.154 0.21616ZM47.9188 4.02802C48.3867 4.82193 49.7065 6.45081 50.3424 7.01916C51.423 7.98504 52.4851 8.65754 53.1957 8.82616C53.4117 8.87733 53.8047 9.00187 54.069 9.10281C54.5147 9.27296 54.6373 9.28641 55.7606 9.2878C57.1322 9.28955 57.2678 9.27676 58.6027 9.01883C60.4274 8.66632 64.8359 8.68049 65.7315 9.04178C66.5836 9.38545 66.9712 9.56539 67.4835 9.85512C68.4523 10.4031 69.3474 11.0374 69.749 11.4609C69.965 11.6886 70.2504 11.9693 70.3833 12.0846C70.7124 12.3702 71.3311 13.1333 71.803 13.8355C72.0825 14.2516 72.3532 14.8005 72.7533 15.7627C73.2667 16.9973 73.3373 17.2203 73.6096 18.4701L73.9063 19.832L73.9644 21.5131C73.9964 22.4376 74.0156 23.2041 74.0072 23.2162C73.9987 23.2283 73.1528 23.1376 72.1272 23.0147C71.1016 22.8918 69.9839 22.7585 69.6433 22.7185C69.3027 22.6786 68.7454 22.6133 68.4048 22.5733C66.223 22.3173 65.5007 22.2503 60.9286 21.8796C59.2219 21.7412 54.6483 21.5003 51.7156 21.3943C49.2452 21.305 42.0841 21.3541 40.4484 21.4715C39.9002 21.5109 38.5273 21.5781 37.3976 21.621C34.2359 21.7409 28.7156 22.1418 26.2513 22.4306C25.2479 22.5481 21.2878 23.0835 21.0708 23.1309C20.9341 23.1608 20.8745 23.1458 20.8745 23.0814C20.8745 22.7045 21.2654 19.1172 21.3626 18.6021C21.5511 17.6029 21.8634 16.6225 22.3406 15.5307C22.8463 14.3741 23.1697 13.8227 23.8551 12.9487C24.5161 12.1059 25.0759 11.5638 26.0292 10.8435C27.0354 10.0832 27.1302 10.026 28.1543 9.56181C29.6107 8.90166 29.8428 8.8448 31.4262 8.76024C33.3375 8.65813 35.4613 8.81264 37.4627 9.19943C38.1059 9.32369 39.7732 9.37032 40.3276 9.27954C41.2449 9.12927 42.7622 8.49843 43.5463 7.94126C44.0043 7.61594 44.9379 6.73849 45.4065 6.1931C45.5583 6.01636 45.8262 5.70917 46.0018 5.51036C46.1773 5.31156 46.5666 4.77712 46.8669 4.32265C47.1672 3.86818 47.4566 3.49717 47.5101 3.49812C47.5636 3.49907 47.7475 3.73756 47.9188 4.02802ZM45.1592 10.7736C45.081 11.0224 45.0846 11.8673 45.1654 12.2192C45.2444 12.5631 45.2159 12.6049 44.9825 12.488C44.8825 12.4378 44.7321 12.4176 44.6483 12.443C44.5137 12.4839 44.4962 12.5274 44.4962 12.8204C44.4962 13.1819 44.5946 13.4694 44.7924 13.6861C44.9627 13.8725 45.0104 13.794 44.8933 13.5201C44.7754 13.2442 44.7716 13.0712 44.8835 13.0712C44.9963 13.0712 45.2795 13.4833 45.2891 13.6615C45.3056 13.9688 45.316 13.9846 45.487 13.9623C45.6485 13.9412 45.6531 13.9477 45.5585 14.0621C45.4143 14.2366 45.4695 14.3468 45.7138 14.3722C45.8588 14.3872 45.9712 14.347 46.0716 14.2443C46.2163 14.0962 46.2166 14.0932 46.098 13.9825C45.9789 13.8712 45.9789 13.8702 46.1051 13.8303C46.2154 13.7953 46.2284 13.749 46.2033 13.4793C46.1738 13.1641 46.3088 12.7057 46.431 12.7057C46.4954 12.7057 46.5068 12.7646 46.5147 13.1374C46.5176 13.2743 46.5505 13.399 46.5878 13.4144C46.6807 13.453 46.7296 13.1933 46.7306 12.6561C46.7315 12.1751 46.6424 11.9748 46.4274 11.9748C46.3157 11.9748 46.0669 12.2365 46.0669 12.3541C46.0669 12.3867 46.0261 12.4133 45.9763 12.4133C45.9125 12.4133 45.8857 12.3354 45.8857 12.1505C45.8857 11.7302 45.7085 11.1085 45.5114 10.8369C45.2936 10.5368 45.2368 10.5266 45.1592 10.7736ZM48.7918 10.7607C48.6509 10.9422 48.423 11.7153 48.423 12.0119C48.423 12.3818 48.3618 12.4278 48.181 12.1936C47.8754 11.7979 47.6001 11.976 47.538 12.6095C47.5124 12.871 47.5302 13.0367 47.6019 13.2043C47.74 13.5274 47.8434 13.5054 47.7984 13.1625C47.7785 13.0118 47.7892 12.8391 47.822 12.7788C47.8729 12.6854 47.8995 12.6947 48.0013 12.8417C48.1111 13 48.1672 13.5166 48.1314 14.0386C48.1189 14.2205 48.3794 14.4009 48.6151 14.3735C48.7672 14.3559 48.8135 14.3176 48.8064 14.2154C48.8012 14.1412 48.8488 14.0178 48.9121 13.9413C48.9754 13.8647 49.0273 13.7445 49.0274 13.6741C49.0278 13.4554 49.258 13.0712 49.3887 13.0712C49.5344 13.0712 49.5383 13.1191 49.4199 13.4619C49.31 13.7801 49.309 13.8021 49.4047 13.8019C49.4463 13.8018 49.5566 13.6557 49.6498 13.477C49.7865 13.2153 49.8159 13.0842 49.8009 12.8011C49.784 12.4811 49.768 12.4478 49.6202 12.4272C49.531 12.4147 49.3707 12.4592 49.2639 12.5261L49.0698 12.6475L49.1118 12.366C49.2099 11.7091 49.2218 11.2341 49.1484 10.9168C49.0618 10.5427 48.9866 10.5098 48.7918 10.7607ZM42.1484 12.4682C42.3143 12.7797 42.6726 13.4438 42.9445 13.9438C43.2164 14.4439 43.4744 14.929 43.5177 15.0219C43.6562 15.3186 44.0875 15.1659 43.9889 14.8551C43.9613 14.7682 43.9072 14.7491 43.7857 14.7832C43.6681 14.8163 43.6457 14.8092 43.7084 14.759C43.7841 14.6981 43.7778 14.6335 43.663 14.2985C43.5099 13.8515 43.4953 13.6351 43.6104 13.5196C43.6919 13.4377 43.7624 13.5465 43.8559 13.898C43.913 14.1126 44.0128 13.9627 44.0128 13.6624C44.0128 13.2438 43.7941 12.8942 43.5145 12.8659C43.3142 12.8456 43.2879 12.8638 43.2514 13.0486C43.1737 13.4415 43.0981 13.4658 42.9764 13.1372C42.8 12.6604 42.4611 12.1485 42.2365 12.0196C41.8434 11.7939 41.8288 11.8682 42.1484 12.4682ZM51.9517 12.1047C51.7287 12.3424 51.4386 12.7969 51.2984 13.1284C51.1931 13.3773 51.0812 13.3846 51.0812 13.1425C51.0812 12.9767 50.8855 12.8336 50.7026 12.8656C50.5017 12.9007 50.2867 13.3409 50.3081 13.6731C50.3294 14.0027 50.423 14.015 50.5073 13.6993C50.5405 13.5749 50.6085 13.4732 50.6583 13.4732C50.8025 13.4732 50.8002 13.7812 50.6528 14.2204C50.5268 14.5961 50.5242 14.6328 50.6177 14.7155C50.7684 14.8489 50.7397 14.9068 50.5695 14.813C50.4549 14.7499 50.3984 14.7527 50.3263 14.825C50.2416 14.9101 50.2424 14.9327 50.3339 15.055C50.4974 15.2737 50.6839 15.224 50.8537 14.9167C51.853 13.1079 52.2895 12.2118 52.2895 11.9687C52.2895 11.8442 52.1395 11.9046 51.9517 12.1047ZM46.8036 14.0571C46.4381 14.405 46.0111 14.5637 45.4326 14.5669C45.1667 14.5683 44.8742 14.5441 44.7824 14.5131C44.6374 14.464 44.6059 14.4832 44.5415 14.6593C44.4536 14.8997 44.3487 15.0174 44.1023 15.1521C44.0019 15.2069 43.8691 15.3196 43.8071 15.4025C43.7067 15.5366 43.7049 15.558 43.7907 15.5979C43.9602 15.6766 44.2768 15.4901 44.5566 15.1468L44.8284 14.813L45.1747 14.8592C45.6435 14.9217 46.181 14.7919 46.7446 14.4803L47.2141 14.2206L47.4409 14.4018C47.8512 14.7293 48.2747 14.8557 48.9343 14.8475L49.5362 14.8401L49.769 15.1601C49.9975 15.4742 50.4237 15.7207 50.5228 15.5963C50.5475 15.5653 50.4614 15.4366 50.3316 15.3105C49.9737 14.9627 49.7143 14.6543 49.683 14.5391C49.6599 14.4542 49.6186 14.4509 49.4528 14.5208C48.8999 14.7541 48.0041 14.5229 47.3367 13.9748C47.221 13.8798 47.1122 13.8037 47.095 13.8058C47.0778 13.8079 46.9467 13.921 46.8036 14.0571ZM46.8453 14.5953C46.5627 14.8609 46.0696 15.008 45.4622 15.008H44.8877L44.3941 15.4466C44.1226 15.6878 43.8985 15.9035 43.8962 15.926C43.8939 15.9484 43.93 16.0295 43.9763 16.1063C44.0683 16.2585 44.0253 16.2664 45.2211 15.8788C46.2 15.5616 46.9323 15.4931 47.8809 15.6302C48.4209 15.7082 48.6121 15.7533 49.6296 16.0426C50.2281 16.2126 50.2664 16.2154 50.3395 16.0946C50.4546 15.9041 50.4385 15.865 50.1801 15.7055C50.05 15.6252 49.8482 15.4372 49.7316 15.2878L49.5197 15.0159L48.8656 15.0054C48.2623 14.9958 48.1695 14.9742 47.6683 14.7274C47.3695 14.5802 47.0945 14.4599 47.0572 14.4599C47.0199 14.4599 46.9246 14.5208 46.8453 14.5953ZM45.9763 15.8173C44.8455 16 44.2545 16.3063 44.2545 16.7096C44.2545 16.9135 44.1656 16.9201 45.1909 16.6396C45.7236 16.494 45.9631 16.4741 47.2148 16.4721C48.6749 16.4698 48.9298 16.5051 49.6185 16.8055C49.7942 16.8822 49.9498 16.9449 49.9643 16.9449C49.9788 16.9449 50.0324 16.8473 50.0834 16.7279C50.1743 16.5153 50.1725 16.5086 49.9959 16.3981C49.4994 16.0874 47.7182 15.6903 46.9145 15.711C46.7307 15.7158 46.3086 15.7636 45.9763 15.8173ZM45.8555 16.767C45.3418 16.8618 44.8151 17.0187 44.5113 17.1676C44.4247 17.21 44.3753 17.2963 44.3753 17.405C44.3753 17.6037 44.4947 18.4176 44.5356 18.4978C44.5509 18.5278 44.6452 18.5012 44.7452 18.4386C44.8452 18.3761 45.2038 18.2611 45.5421 18.1831C46.6675 17.9237 48.9048 18.0356 49.4621 18.3792C49.7547 18.5596 49.7864 18.5215 49.8657 17.8944C49.9064 17.5724 49.9236 17.2774 49.9039 17.2388C49.8481 17.1296 49.1197 16.894 48.446 16.7675C47.7127 16.6296 46.6011 16.6295 45.8555 16.767ZM47.3749 17.0008C47.5359 17.1253 47.4928 17.4862 47.3045 17.5899C47.1763 17.6606 47.1338 17.651 47.0326 17.5285C46.9666 17.4487 46.9127 17.3193 46.9127 17.2409C46.9127 17.017 47.2016 16.8669 47.3749 17.0008ZM46.3388 17.4262C46.3388 17.5981 46.3047 17.6456 46.1407 17.7025C45.9756 17.7598 45.928 17.7481 45.8544 17.6322C45.7304 17.437 45.7685 17.2203 45.9455 17.114C46.1509 16.9905 46.3388 17.1396 46.3388 17.4262ZM48.4714 17.1788C48.5863 17.3178 48.5594 17.6606 48.427 17.7464C48.2295 17.8742 48.0001 17.7214 48.0001 17.462C48.0001 17.1505 48.2994 16.9707 48.4714 17.1788ZM49.4984 17.3981C49.5383 17.4463 49.5709 17.5772 49.5709 17.6891C49.5709 17.8431 49.5355 17.9031 49.4246 17.9368C49.1735 18.013 49.059 17.9476 49.0371 17.7154C49.0064 17.3896 49.3156 17.1769 49.4984 17.3981ZM45.1953 17.4394C45.4064 17.6143 45.3061 18.0413 45.0539 18.0413C44.8476 18.0413 44.7378 17.9232 44.7378 17.7014C44.7378 17.4596 45.0228 17.2965 45.1953 17.4394ZM46.2179 18.3026C45.6542 18.3969 45.0278 18.5872 44.823 18.7261C44.612 18.8694 44.4234 19.2201 44.5045 19.3184C44.5581 19.3831 46.4807 19.5019 47.4262 19.4988C48.332 19.4959 49.6478 19.3614 49.7288 19.2633C49.7982 19.1793 49.65 18.8635 49.4767 18.7261C49.1783 18.4895 48.3895 18.3305 47.3658 18.3005C46.8342 18.285 46.3176 18.2858 46.2179 18.3026ZM19.7347 27.7805C19.7391 29.7202 19.7595 32.2116 19.78 33.3171C19.8162 35.2708 19.8206 35.3266 19.938 35.3104C20.0045 35.3012 20.4667 35.2425 20.9651 35.18C21.8411 35.0701 22.2031 35.0251 24.7409 34.7106C26.295 34.518 30.5938 34.1276 32.8061 33.9782C33.4375 33.9355 34.6608 33.8516 35.5247 33.7917C36.3887 33.7317 37.3538 33.6649 37.6694 33.6433C39.3493 33.5282 44.1694 33.3902 46.507 33.3904C49.9625 33.3907 56.4916 33.5788 57.8475 33.7171C58.429 33.7764 59.4077 33.8597 60.0224 33.9022C63.2172 34.123 68.8481 34.6435 70.7156 34.8908C73.2949 35.2323 74.0354 35.3185 74.0663 35.2811C74.0834 35.2604 74.0985 32.812 74.0999 29.84C74.1012 26.8682 74.1262 24.3903 74.1554 24.3337C74.1997 24.2476 74.4307 24.2389 75.5639 24.2811C77.3247 24.3465 77.4602 24.3713 79.0581 24.9191C80.0266 25.2512 80.5206 25.4959 81.2928 26.0264C82.3156 26.7289 82.7383 27.1134 83.5011 28.0349C84.1009 28.7595 84.3668 29.1523 84.8173 29.9788C85.8587 31.8899 86.3102 33.2166 86.6595 35.3927C86.9008 36.8957 86.9017 37.6748 86.6647 40.0414C86.5661 41.0263 86.4404 42.6266 86.3855 43.5978C86.2866 45.3468 86.2869 45.3764 86.4192 46.7041C86.5385 47.9016 86.5946 48.2086 86.9454 49.5796C87.1613 50.4238 87.4218 51.2954 87.5242 51.5165C87.6266 51.7376 87.7565 52.0172 87.8128 52.1378C88.5173 53.6461 89.9549 55.4866 90.7578 55.9081C91.1736 56.1264 91.1057 56.2592 90.2292 56.942C89.6194 57.4171 89.1813 57.9598 88.4202 59.1827C87.7499 60.2599 87.2782 61.3973 86.9164 62.8089C86.62 63.9652 86.5115 64.6948 86.3932 66.3256C86.312 67.4443 86.3123 67.7419 86.3957 69.1396C86.4469 69.9993 86.5555 71.4185 86.637 72.2934C86.8404 74.4765 86.8765 75.3951 86.79 76.1844C86.6976 77.0274 86.3558 78.6822 86.0805 79.6196C85.5338 81.4808 84.2638 83.6959 83.0504 84.9047C82.729 85.2248 82.3797 85.5809 82.2742 85.696C82.0239 85.9691 80.8853 86.6559 80.0678 87.0269C78.7537 87.6234 76.1067 88.1219 74.8152 88.0163C74.266 87.9713 74.2288 87.9773 74.1654 88.1207C74.0737 88.3278 73.9801 89.7802 73.9789 91.0124C73.977 93.0323 73.4405 95.2525 72.4793 97.2183C72.3067 97.5712 72.1655 97.8857 72.1655 97.9169C72.1655 97.9944 71.7039 98.6461 71.1477 99.3539C69.8912 100.953 67.8764 102.455 66.1461 103.083C65.1862 103.432 64.0475 103.629 62.99 103.63C62.0097 103.631 58.1808 103.337 57.1546 103.182C55.8055 102.979 54.972 102.979 54.1925 103.185C53.8602 103.273 53.4805 103.365 53.3485 103.389C53.0191 103.451 51.3598 104.492 50.6464 105.085C49.7659 105.818 48.4712 107.389 47.8963 108.422C47.7562 108.674 47.6159 108.9 47.5846 108.923C47.4712 109.008 47.3321 108.868 47.0215 108.355C46.2896 107.147 44.82 105.422 44.043 104.858C42.7118 103.893 42.1099 103.606 40.622 103.231L39.6173 102.978L38.6887 103.049C38.1779 103.089 37.3658 103.185 36.884 103.264C35.7905 103.443 33.339 103.651 32.4028 103.644C31.5191 103.638 30.1354 103.456 29.423 103.252C28.7818 103.069 27.9962 102.704 26.9345 102.094C26.217 101.682 25.3517 101.083 25.1799 100.88C25.1389 100.832 24.879 100.575 24.6024 100.31C23.3871 99.1445 22.1986 96.993 21.6117 94.8954C21.1751 93.3346 20.905 91.049 20.9715 89.4774C20.9938 88.9497 20.9947 88.4342 20.9735 88.3319C20.9111 88.0311 20.628 87.9633 19.6896 88.0241C18.9068 88.0748 18.8808 88.0718 18.8808 87.9304C18.8808 87.7554 19.2211 87.378 19.5325 87.2074C19.8929 87.0102 20.7362 87.0512 21.8109 87.3183C22.3093 87.4422 23.3831 87.7096 24.1972 87.9126C26.3747 88.4556 27.3136 88.5971 28.7282 88.5955C30.6689 88.5932 31.4351 88.2677 31.9017 87.247C32.0634 86.8932 32.0804 86.7922 32.0786 86.1977C32.0768 85.5767 32.0625 85.5045 31.8233 84.9074C31.6377 84.4441 31.4585 84.1358 31.1535 83.755L30.7371 83.235L31.0384 82.5236C31.3137 81.8737 31.3369 81.78 31.3078 81.4379C31.2502 80.7612 30.9741 80.2909 29.661 78.6329C28.8112 77.5599 28.1217 76.6723 27.7021 76.1113C27.0944 75.2988 26.1788 74.1744 26.1249 74.1744C26.065 74.1744 24.5597 77.2589 24.5597 77.3817C24.5597 77.4066 24.6548 77.5188 24.7711 77.631C24.8874 77.7433 24.9826 77.86 24.9826 77.8904C24.9826 77.9208 24.8943 77.9844 24.7862 78.0318C24.4978 78.1583 24.1596 78.5235 23.9706 78.9124C23.8212 79.2199 23.8047 79.322 23.8066 79.9302C23.8078 80.3482 23.7848 80.6065 23.7462 80.6067C23.7118 80.6069 23.5552 80.5513 23.3981 80.4832C23.241 80.4151 23.1035 80.3738 23.0925 80.3915C23.0605 80.4426 22.171 82.2831 21.9642 82.7259C21.6004 83.5048 21.5667 83.6064 21.6509 83.6694C21.6934 83.7012 22.8886 84.1138 24.3069 84.5864C25.7252 85.059 27.1303 85.5427 27.4293 85.6614C28.0555 85.9098 28.7071 85.9956 29.0674 85.8771C29.3912 85.7706 29.7695 85.2816 30.1157 84.5219L30.3797 83.9424L30.7169 84.3778C31.4596 85.3366 31.6469 86.4925 31.1706 87.1775C30.8123 87.6925 30.3404 87.8072 28.6074 87.8002C27.2297 87.7946 26.9116 87.7563 25.3667 87.4096C24.7645 87.2745 22.8872 86.7741 21.8411 86.4699C21.5819 86.3945 21.1402 86.3537 20.5422 86.3498C19.7214 86.3445 19.6023 86.3603 19.2792 86.5178C18.9217 86.6922 18.4754 87.1553 18.1486 87.6912L17.9955 87.9421L17.3658 87.8503C16.2031 87.6805 14.6048 87.088 14.0364 86.6158C13.8931 86.4969 13.5199 86.2441 13.2071 86.0542C12.8943 85.8644 12.5952 85.6503 12.5425 85.5786C12.4898 85.5067 12.1749 85.1532 11.8426 84.7929C10.8748 83.7433 9.8102 82.0405 9.31977 80.7573C8.93934 79.7619 8.57801 78.5803 8.40112 77.753C8.25401 77.065 8.23661 76.8491 8.22773 75.5997C8.21468 73.7738 8.33255 71.5414 8.48817 70.6661C8.67624 69.6082 8.76251 67.0065 8.64054 66.0724C8.28802 63.3736 8.31739 63.5239 7.87389 62.1511C7.19774 60.0581 6.81744 59.3134 5.76401 58.0198C5.28197 57.4278 4.50185 56.6519 4.10837 56.3733C4.02724 56.3157 4.0102 56.247 4.04077 56.0995C4.07122 55.9529 4.17247 55.8472 4.43769 55.6853C4.89913 55.4034 5.5928 54.6648 6.19252 53.8165C6.77062 52.9988 6.97216 52.6245 7.47154 51.4412C7.8995 50.427 8.16194 49.5012 8.3929 48.1909C8.64718 46.748 8.68506 46.1704 8.65546 44.1862C8.63123 42.5606 8.60906 42.2319 8.46745 41.3935C8.18707 39.7342 8.14273 36.8903 8.36765 34.9982C8.4721 34.1196 9.11726 32.0265 9.57296 31.0878C9.69004 30.8466 9.84083 30.527 9.90801 30.3776C10.1089 29.9311 10.7506 28.8586 10.8156 28.8608C10.8488 28.862 11.1615 29.2466 11.5104 29.7156C11.8592 30.1846 12.5525 31.1071 13.0509 31.7657C13.5493 32.4242 14.032 33.0718 14.1235 33.2048L14.29 33.4465L13.5259 34.7522C13.1057 35.4704 12.5843 36.3693 12.3671 36.7497C12.1501 37.1301 11.6918 37.9161 11.3487 38.4965C11.0057 39.0768 10.725 39.5742 10.725 39.6019C10.725 39.6296 11.1396 39.5589 11.6463 39.4447C12.7282 39.2011 17.0609 38.4906 20.0348 38.0693C21.6826 37.8358 25.054 37.4141 25.2997 37.4107C25.3247 37.4104 25.3451 36.9003 25.3451 36.2772C25.3451 35.421 25.3266 35.1438 25.2695 35.1419C25.228 35.1405 23.9141 35.3105 22.3498 35.5199C20.7855 35.7292 19.4601 35.8793 19.4046 35.8536C19.3119 35.8106 19.3037 35.4531 19.3037 31.4542V27.1017L19.1678 27.1381C19.093 27.1582 18.692 27.2266 18.2767 27.2901C17.8613 27.3536 17.1137 27.4852 16.6153 27.5827C15.5778 27.7856 11.887 28.4106 11.3895 28.4676L11.0573 28.5057L11.7218 27.709C12.3046 27.0104 12.4867 26.8435 13.2019 26.3526C14.808 25.2502 16.6535 24.5453 18.2163 24.4375C18.6316 24.4087 19.0802 24.3595 19.2131 24.328C19.346 24.2965 19.5159 24.2669 19.5907 24.2623L19.7266 24.2539L19.7347 27.7805ZM41.4192 25.3797C41.8238 25.4968 41.9536 25.5744 42.3657 25.9456C42.7513 26.2929 42.9089 26.6039 42.7699 26.7434C42.6929 26.8208 42.637 26.788 42.4241 26.5408C42.2845 26.3787 42.0441 26.1585 41.8899 26.0516C41.6015 25.8518 40.7952 25.6062 40.6496 25.6738C40.5824 25.7051 40.5705 26.1576 40.5836 28.1806L40.5995 30.6493L40.8768 30.6711C41.4115 30.7131 42.0641 30.2888 42.5076 29.6108C42.797 29.1683 42.96 29.0577 43.0242 29.2602C43.0745 29.4186 42.9754 29.6304 42.6645 30.029C42.1809 30.649 41.9759 30.8068 41.3849 31.0137C40.3454 31.3777 39.0751 30.6459 38.564 29.3888C38.3782 28.9318 38.3642 28.846 38.3642 28.1653C38.3642 27.5254 38.3844 27.3812 38.5249 27.0186C39.0258 25.726 40.2399 25.0385 41.4192 25.3797ZM51.3398 25.3848C51.8204 25.5612 52.4634 26.0112 52.6902 26.3298C53.5323 27.5125 53.427 29.2107 52.444 30.3003C51.4717 31.3783 50.1054 31.3771 49.1128 30.2974C48.137 29.236 48.0468 27.4594 48.9084 26.2722C49.4662 25.5036 50.568 25.1015 51.3398 25.3848ZM63.6346 25.4587C64.0154 25.5996 64.35 25.9285 64.2935 26.1063C64.2408 26.2726 64.1083 26.2581 63.8424 26.0568C63.3941 25.7177 62.9319 25.6207 62.708 25.8188C62.5959 25.918 62.6023 25.9407 62.8776 26.4218C63.0349 26.6967 63.4223 27.2443 63.7385 27.6386C64.3865 28.4467 64.6139 28.9061 64.6139 29.4073C64.6139 29.9448 64.2948 30.5208 63.8338 30.8156C63.341 31.1306 62.4436 31.1888 61.7974 30.9475C61.3912 30.7958 60.8551 30.2855 60.8801 30.0743C60.9087 29.8333 61.0885 29.8485 61.3465 30.114C61.6492 30.4256 62.2414 30.7021 62.5418 30.6722C62.7285 30.6535 62.7749 30.6179 62.791 30.4808C62.8151 30.2748 62.6332 29.9761 61.981 29.151C61.3046 28.2952 61.0756 27.9083 60.9595 27.4254C60.7345 26.4887 61.1768 25.7114 62.1234 25.3806C62.4744 25.2579 63.1924 25.295 63.6346 25.4587ZM32.4597 26.5745C32.7574 27.2077 33.0794 27.8983 33.1754 28.1094C33.2713 28.3204 33.3671 28.493 33.3883 28.4931C33.4094 28.4931 33.722 27.803 34.083 26.9596C34.6849 25.5533 34.7526 25.4259 34.899 25.4247C34.9869 25.424 35.0731 25.4686 35.0906 25.5239C35.1271 25.6389 35.0922 25.7271 34.6365 26.6717C33.8401 28.3225 32.917 30.2503 32.6968 30.7224C32.5656 31.0038 32.4475 31.2485 32.4344 31.2662C32.3954 31.3189 32.2563 31.1096 32.0974 30.7589C32.0154 30.578 31.6621 29.8544 31.3123 29.151C30.1212 26.7554 29.5269 25.5046 29.5606 25.464C29.579 25.4416 30.1171 25.4234 30.7563 25.4234H31.9184L32.4597 26.5745ZM37.6551 28.1274C37.6638 29.5945 37.6605 30.8279 37.6477 30.8683C37.6331 30.9147 37.2335 30.9338 36.5596 30.9201L35.4945 30.8986V28.2097C35.4945 26.7308 35.5133 25.4981 35.5362 25.4704C35.5591 25.4427 36.0416 25.429 36.6085 25.44L37.6392 25.4599L37.6551 28.1274ZM47.9334 25.5237C47.9713 25.579 47.9853 25.6776 47.9645 25.743C47.9333 25.8416 47.826 25.8619 47.337 25.8619H46.7473L46.7098 26.136C46.6892 26.2868 46.6721 27.4159 46.6717 28.6454C46.6713 29.8748 46.6598 30.8944 46.6461 30.9112C46.6323 30.9279 46.1498 30.9252 45.5737 30.9051L44.5264 30.8686L44.5462 29.1144C44.5572 28.1496 44.5478 27.0243 44.5254 26.6136L44.4848 25.8669L43.872 25.8461C43.3276 25.8277 43.2566 25.81 43.2373 25.688C43.2254 25.6124 43.2522 25.5224 43.2971 25.4881C43.3418 25.4537 44.3878 25.4251 45.6215 25.4245C47.4504 25.4236 47.8773 25.4419 47.9334 25.5237ZM57.1226 25.5876C57.697 25.7636 57.9641 26.0013 58.2931 26.6294C58.5831 27.1828 58.633 27.3632 58.6323 27.857C58.6316 28.4118 58.4461 28.9384 58.107 29.3487C57.8698 29.6357 57.3937 29.954 57.1988 29.956C57.1402 29.9567 57.0568 29.9845 57.0134 30.0178C56.9607 30.0582 57.0919 30.1451 57.406 30.2782C57.6655 30.3879 57.9933 30.5273 58.1345 30.5878C58.3157 30.6655 58.3913 30.7392 58.3913 30.8381C58.3913 31.0482 58.0028 31.0552 57.5455 30.8535C57.2839 30.7382 56.6514 30.271 56.3372 29.961C56.2541 29.8791 56.1658 29.8113 56.1409 29.8104C56.1159 29.8095 56.0955 30.0554 56.0955 30.3569C56.0955 30.6584 56.0752 30.9057 56.0502 30.9064C56.0253 30.9072 55.5428 30.9103 54.9779 30.9135L53.9509 30.919L53.935 28.2629C53.9263 26.802 53.9336 25.5611 53.9513 25.5052C53.995 25.3675 56.6272 25.4359 57.1226 25.5876ZM60.2365 26.4946C60.2124 27.0838 60.1786 27.6101 60.1615 27.6641C60.1404 27.7304 60.0184 27.7622 59.7854 27.7622H59.4405L59.3681 26.7207C59.3284 26.1479 59.2962 25.6216 59.2967 25.5513C59.2973 25.44 59.3614 25.4234 59.7889 25.4234H60.2803L60.2365 26.4946ZM50.5979 28.1642V30.6858H50.874C51.3074 30.6858 51.9825 30.3105 52.3092 29.8879C52.7699 29.292 52.8638 29.0051 52.8612 28.2008C52.8594 27.5945 52.8379 27.4534 52.6918 27.0888C52.5191 26.6577 52.1141 26.1608 51.7786 25.9681C51.6069 25.8696 50.8477 25.6468 50.6734 25.6439C50.6145 25.6429 50.5979 26.195 50.5979 28.1642ZM56.1358 25.9107C56.1137 25.9374 56.0955 26.7065 56.0955 27.6196V29.2798L56.3106 29.4783C56.5166 29.6683 56.5407 29.6735 56.8839 29.6003C57.6568 29.4356 58.11 28.9553 58.2613 28.1408C58.3644 27.5857 58.1545 26.7656 57.8228 26.4276C57.4834 26.0816 56.2954 25.7176 56.1358 25.9107ZM74.547 30.0086C74.5709 31.5724 74.571 33.5321 74.5472 34.3636L74.5038 35.8752H74.2754C74.1499 35.8752 73.8444 35.8411 73.5967 35.7994C72.6314 35.637 68.4476 35.09 68.4048 35.1206C68.3799 35.1384 68.3595 35.6602 68.3595 36.2802C68.3595 37.3905 68.3615 37.4079 68.4954 37.4407C68.5702 37.459 69.243 37.5435 69.9907 37.6284C72.069 37.8647 76.9267 38.5275 78.0257 38.7248C80.0036 39.0801 82.8713 39.5389 82.8996 39.5047C82.919 39.4812 82.6005 38.9099 82.1919 38.2351C81.7833 37.5603 81.3538 36.8437 81.2376 36.6427C81.1214 36.4417 80.6948 35.7181 80.2896 35.0347C79.4533 33.624 79.3915 33.4999 79.4579 33.3615C79.4842 33.3065 79.8208 32.8547 80.2059 32.3574C80.9633 31.3792 82.5442 29.2773 82.8138 28.8902L82.9803 28.6512L82.8138 28.6101C82.7222 28.5876 81.7637 28.419 80.6839 28.2356C79.604 28.0522 78.3534 27.8371 77.9048 27.7577C76.9284 27.5849 75.1405 27.2725 74.7693 27.2101L74.5034 27.1652L74.547 30.0086ZM50.4167 36.6425C50.0013 36.6912 49.4168 36.7912 49.1178 36.8647C48.524 37.0105 47.9905 37.0325 47.245 36.9422C46.8853 36.8986 46.6148 36.9143 46.1877 37.0036C42.3974 37.7963 39.4844 39.244 37.3976 41.3722C36.5535 42.233 36.2584 42.7943 35.657 44.6826C35.1873 46.1572 35.097 47.0033 35.2786 48.2274C35.3562 48.7506 35.3533 48.7986 35.2157 49.2817C35.0324 49.9254 35.0274 50.6244 35.1955 52.0429C35.5681 55.1842 36.3743 58.7204 37.5528 62.3815C38.2516 64.5528 38.5141 65.7867 38.6423 67.5049C38.6821 68.0375 38.7363 68.4734 38.7628 68.4734C38.7892 68.4734 38.9387 68.1856 39.0948 67.8338C39.2509 67.4821 39.5779 66.7697 39.8214 66.2508C40.0648 65.7318 40.3457 65.1069 40.4457 64.8621C40.6932 64.2556 41.5236 61.8894 41.6647 61.3882C41.8349 60.7839 42.0916 60.0438 42.1666 59.9416C42.217 59.8729 42.296 59.9417 42.502 60.2339C43.2083 61.2356 44.4432 62.4535 45.3095 63.0027C45.7463 63.2795 45.8303 63.3073 46.2214 63.3042C46.5132 63.302 46.7382 63.2547 46.9184 63.1578C47.298 62.9538 47.5772 62.6483 47.5772 62.4369C47.5772 62.217 47.5615 62.2176 47.3587 62.445C47.2683 62.5464 47.0455 62.6816 46.8635 62.7456C46.152 62.9959 45.5382 62.7145 44.7689 61.7856C44.2735 61.1873 43.6171 60.2138 43.3178 59.633C42.6705 58.377 42.466 56.7444 42.7726 55.2818C43.0048 54.1743 43.3932 53.4912 43.9826 53.153C44.8458 52.6579 45.934 53.2109 46.6408 54.504C46.9459 55.062 47.0485 55.1274 46.996 54.7303C46.9718 54.5472 46.981 54.4401 47.021 54.4401C47.0558 54.4401 47.3243 54.5422 47.6177 54.667C48.2512 54.9364 48.8831 55.3475 48.9716 55.5476C49.0342 55.6888 49.0236 56.0066 48.8433 59.4102C48.7059 62.0043 48.6905 62.1559 48.3276 64.49C48.1976 65.3257 47.4886 68.7672 47.3037 69.4601C47.1927 69.876 47.1447 70.2243 47.1376 70.6661C47.1289 71.2094 47.1479 71.3354 47.2892 71.6705C47.5768 72.3518 48.0984 73.121 48.7721 73.8569C49.1344 74.2526 49.7274 74.9061 50.0899 75.3091C50.4524 75.712 50.8373 76.1171 50.9453 76.2094C51.0533 76.3016 51.1416 76.4193 51.1416 76.4709C51.1416 76.5225 50.9921 77.1695 50.8094 77.9086C50.6266 78.6477 50.4765 79.368 50.4759 79.5091C50.4753 79.6503 50.4074 80.2427 50.325 80.8256C50.1603 81.9913 50.1228 83.1246 50.2505 83.0731C50.2951 83.0552 50.3809 82.67 50.4596 82.1351C50.5911 81.241 50.7594 80.4808 51.0165 79.6196C51.2161 78.9508 51.8378 77.4439 51.9769 77.2921C52.0977 77.16 52.1119 77.1641 52.6631 77.489C52.9727 77.6715 53.537 78.0194 53.9171 78.262C54.2973 78.5046 54.8954 78.8555 55.2462 79.0417C55.5971 79.228 55.9793 79.4373 56.0955 79.5068C56.4258 79.7042 57.5856 80.1482 58.1194 80.2814C58.8299 80.4588 59.9239 80.4433 60.5359 80.2472C61.4286 79.9612 62.6376 79.1213 62.7186 78.7311C62.7433 78.6121 62.6797 78.2759 62.5364 77.7683C62.1088 76.253 61.8969 74.372 62.0065 73.0643C62.088 72.0916 62.0938 70.7746 62.0208 69.789C61.9798 69.2353 61.9313 69.0039 61.7812 68.647C61.6778 68.4009 61.5932 68.1633 61.5932 68.119C61.5932 68.0118 61.8754 67.8404 62.1575 67.7764C62.302 67.7436 62.4211 67.6586 62.4831 67.5443C62.5743 67.3759 62.5699 67.2991 62.4157 66.3726C62.2477 65.363 62.143 65.0296 61.8298 64.5065C61.5376 64.0185 61.5728 63.9802 62.3917 63.896C62.6585 63.8686 62.9298 63.7951 63.026 63.7242C63.1947 63.5999 63.6372 62.7039 63.7695 62.219C63.8491 61.9271 63.834 61.8898 62.7526 59.7026C61.8239 57.8243 61.481 56.9741 61.4344 56.4342C61.3814 55.8203 61.4301 55.6528 61.7995 55.1799C62.2118 54.6521 62.2836 54.4889 62.1932 54.2846C62.1498 54.1864 62.1386 53.9646 62.1629 53.6816C62.2063 53.1756 62.1075 52.6483 61.588 50.6134C61.4223 49.9644 61.1514 48.8085 60.986 48.0447C60.8205 47.2809 60.644 46.5297 60.5938 46.3753C60.4875 46.0493 60.4544 46.1529 61.0966 44.8046C61.557 43.8381 61.736 43.3244 61.9897 42.2417C62.265 41.0667 62.1654 40.6998 61.3376 39.8421C60.0384 38.4961 57.556 37.35 54.8722 36.8573C53.1417 36.5398 51.8299 36.4765 50.4167 36.6425ZM48.7683 37.7708C49.4688 37.9382 50.097 38.1959 50.7187 38.5709C51.3082 38.9265 51.9131 39.4013 51.8229 39.4377C51.784 39.4534 51.2953 39.2305 50.737 38.9423C50.1787 38.6541 49.3141 38.2545 48.8157 38.0541C48.3173 37.8539 47.8982 37.6763 47.8843 37.6597C47.8262 37.5897 48.2162 37.6388 48.7683 37.7708ZM55.1694 37.8563C56.8287 38.5622 57.6888 39.1671 57.9063 39.781C58.1277 40.4059 58.1181 40.8697 57.8952 40.3155C57.7654 39.9925 57.3746 39.4566 57.2689 39.4566C57.1623 39.4566 57.1601 39.4264 57.3018 39.9247C57.488 40.5795 57.5487 41.1229 57.4943 41.6493C57.4384 42.1906 57.4149 42.1222 57.3059 41.1019C57.2126 40.2277 56.9894 39.6643 56.5393 39.1666C56.167 38.755 55.5067 38.2606 54.9075 37.9447C54.697 37.8338 54.5248 37.7175 54.5248 37.6862C54.5248 37.5951 54.6053 37.6163 55.1694 37.8563ZM52.2522 37.8514C53.5443 38.3341 54.3565 39.0452 54.9221 40.1888C55.1866 40.7236 55.2829 41.0732 55.2368 41.3314C55.22 41.4253 55.1515 41.3214 55.0126 40.9915C54.3967 39.5288 53.6374 38.7682 51.8384 37.8118C51.5543 37.6608 51.8069 37.6849 52.2522 37.8514ZM60.447 40.9367C60.6 41.1621 60.6454 41.5503 60.5678 41.9696C60.4946 42.3645 60.0907 43.4766 60.0204 43.4766C59.9953 43.4766 60.0555 43.173 60.1541 42.8018C60.3899 41.9151 60.4244 41.5297 60.3056 41.1084C60.2021 40.7405 60.2633 40.6662 60.447 40.9367ZM55.6122 44.602C56.5319 44.8113 57.7895 45.2128 58.4215 45.499C58.9095 45.72 59.8707 46.3403 60.0629 46.5583C60.2376 46.7565 60.2832 46.9122 60.5308 48.1544C60.6469 48.7372 60.9311 49.9706 61.1622 50.8952C61.8876 53.7973 61.8824 53.7293 61.4423 54.5641C61.0972 55.2185 61.0015 55.7537 61.1003 56.4771C61.2591 57.641 61.5192 58.3313 62.69 60.6977C63.0673 61.46 63.3452 62.101 63.3452 62.2086C63.3452 62.4277 63.0241 62.9554 62.7877 63.1247C62.6279 63.2392 62.6169 63.236 62.4252 63.0174C62.1071 62.6546 61.9151 62.6086 60.5185 62.5607C59.0635 62.5108 59.1186 62.5362 59.1171 61.9135C59.1166 61.7025 59.0949 61.5298 59.0689 61.5298C58.9765 61.5298 58.8142 61.9578 58.8142 62.2009C58.8142 62.4948 58.924 62.7042 59.2937 63.1154C59.4805 63.3231 59.5496 63.446 59.5081 63.4965C59.4744 63.5375 59.2462 63.6222 59.001 63.6845C58.3485 63.8506 58.1285 64.0284 57.8097 64.6473C57.4993 65.2497 57.048 66.5166 56.7923 67.503C56.657 68.0251 56.6003 68.1598 56.5411 68.1003C56.4115 67.9702 56.2849 67.3761 56.2156 66.573C56.112 65.3717 56.0851 65.294 55.5606 64.6818C55.129 64.1782 53.9953 62.894 53.1662 61.9697C52.9673 61.7479 52.5434 61.2539 52.2242 60.872C51.4534 59.9498 51.4251 59.8496 51.4298 58.0624C51.4336 56.6347 51.5383 55.4449 51.7807 54.0746C52.0237 52.7006 52.0751 52.5353 52.3624 52.2037C52.6069 51.9213 52.8313 51.7431 54.3155 50.6525C54.649 50.4075 54.9803 50.1316 55.0516 50.0395C55.2878 49.7346 55.6344 48.7444 55.6611 48.2986C55.6908 47.801 55.6466 47.6842 55.0149 46.5908C54.3585 45.4547 54.044 45.0108 53.6887 44.7191C53.5174 44.5784 53.3771 44.4338 53.3771 44.3978C53.3769 44.2823 54.7649 44.4092 55.6122 44.602ZM57.4396 52.9013C56.4978 53.4507 55.5978 54.0864 55.6583 54.1596C55.6891 54.1968 55.8837 54.1598 56.1195 54.0716C56.9642 53.756 58.6166 53.7512 59.1987 54.0628C59.3524 54.145 59.6322 54.3458 59.8205 54.5089C60.0109 54.6738 60.2323 54.8053 60.3192 54.8049C60.5488 54.8039 61.093 54.3994 61.1992 54.1508C61.3643 53.7646 61.3033 53.6179 61.0467 53.7841C60.9474 53.8484 60.9158 53.8201 60.8241 53.586C60.7041 53.2795 60.7158 53.2853 59.3881 52.8733C58.1279 52.4822 58.1589 52.4817 57.4396 52.9013ZM44.1609 53.8851C43.96 53.991 43.701 54.3289 43.55 54.6823C43.3136 55.2352 43.1143 56.5799 43.2879 56.4501C43.3211 56.4252 43.3483 56.3402 43.3483 56.2612C43.3483 56.0134 43.5694 55.343 43.764 55.0008C44.1261 54.3643 44.6147 54.1895 44.9833 54.5649C45.1776 54.7626 45.5231 55.5348 45.5231 55.7714C45.5232 55.8403 45.3362 56.1482 45.1076 56.4557C44.4595 57.3275 44.3049 57.8668 44.5227 58.4974C44.7266 59.0878 45.5807 59.9238 46.2753 60.213C46.921 60.4817 47.2148 60.3754 47.2148 59.8729C47.2148 59.5314 47.1575 59.4336 46.7768 59.1245C46.619 58.9964 46.4898 58.8827 46.4898 58.872C46.4898 58.6439 46.3325 57.95 46.2579 57.8492C46.1734 57.7349 46.1575 57.5329 46.1575 56.5702C46.1575 55.5321 46.1447 55.3931 46.0187 55.0614C45.8473 54.6101 45.4515 54.1022 45.1305 53.9215C44.8487 53.7629 44.4231 53.7469 44.1609 53.8851ZM58.1743 54.7667C57.5387 54.9063 56.8809 55.2235 56.8809 55.3904C56.8809 55.5047 57.8837 56.2263 58.3308 56.4338C58.5801 56.5495 58.818 56.6974 58.8597 56.7625C58.9185 56.8543 58.9516 56.8612 59.0077 56.7933C59.0639 56.7253 59.063 56.6487 59.0038 56.4507C58.9016 56.1087 59.0265 55.8527 59.4557 55.525C59.7799 55.2775 59.947 55.0267 59.878 54.8915C59.8235 54.7849 59.284 54.6583 58.9169 54.6659C58.7441 54.6696 58.4099 54.7149 58.1743 54.7667ZM58.3532 55.6644C58.3317 55.8955 58.3044 56.0982 58.2925 56.1147C58.2649 56.1533 58.0104 56.015 57.6754 55.7795C57.4779 55.6407 57.4298 55.574 57.4817 55.5109C57.589 55.3803 57.915 55.2558 58.1653 55.2496L58.3923 55.2441L58.3532 55.6644ZM44.1872 59.7574C44.4388 60.3141 45.4397 61.1337 46.0324 61.2682C46.4517 61.3634 46.2664 61.1163 45.5685 60.6496C45.1947 60.3996 44.7473 60.0679 44.5743 59.9123C44.2312 59.6038 44.0928 59.5485 44.1872 59.7574ZM37.2577 70.446C37.1475 70.4776 36.9932 70.5763 36.9147 70.6656C36.7548 70.8473 36.2735 71.9243 35.8446 73.0602C35.6882 73.4743 35.4503 74.0028 35.316 74.2345C35.1816 74.4662 35.0716 74.6955 35.0716 74.744C35.0716 74.7966 35.1599 74.8322 35.2905 74.8322C35.7529 74.8322 36.8192 75.0708 37.3977 75.3036C38.0971 75.5852 39.0355 76.1485 39.5584 76.6007C40.0927 77.0627 41.6893 78.5657 42.1209 79.0131C42.8918 79.812 44.9221 82.0651 45.8307 83.1298C47.3648 84.9276 48.8256 86.3862 49.9938 87.2865C50.7816 87.8937 51.1828 88.1545 51.273 88.1181C51.3477 88.088 50.9836 87.5209 50.3826 86.7313C50.0155 86.2489 49.5073 85.4339 48.8336 84.2469C48.7722 84.1388 48.4648 83.5057 48.1506 82.84C47.54 81.5468 46.3911 79.4542 45.7004 78.3771C44.6047 76.6684 43.4279 75.3017 41.4839 73.48C40.9572 72.9864 39.5574 71.936 38.8522 71.5052C38.1384 71.0691 37.9111 70.8389 37.9111 70.5523C37.9111 70.3933 37.8862 70.3745 37.6845 70.3812C37.56 70.3853 37.3678 70.4145 37.2577 70.446ZM74.5798 71.0133C74.5043 71.2444 74.395 71.5651 74.3367 71.7259C74.2785 71.8867 73.9989 72.7089 73.7155 73.5531C73.4321 74.3973 72.9123 75.9432 72.5603 76.9884C71.9926 78.6743 71.9284 78.9093 71.9906 79.0714C72.0293 79.1719 72.1237 79.445 72.2006 79.6783L72.3403 80.1024L72.0924 80.7987C71.9561 81.1817 71.7874 81.5403 71.7176 81.5956C71.5194 81.7528 70.246 82.5504 68.2689 83.7557C67.272 84.3634 66.3703 84.9392 66.2648 85.0352C66.0887 85.1956 66.0777 85.2295 66.1293 85.4553C66.1846 85.6976 67.2078 88.013 67.3191 88.1477C67.4172 88.2663 67.5898 87.9905 67.552 87.7754C67.5337 87.6715 67.3543 87.2082 67.1533 86.7459C66.8183 85.9751 66.7966 85.8977 66.8916 85.813C66.9487 85.7622 67.0206 85.7308 67.0514 85.7432C67.0822 85.7557 67.2872 86.181 67.5069 86.6884C67.7266 87.1957 67.9261 87.6347 67.9502 87.6638C67.9743 87.693 68.0346 87.6762 68.0841 87.6265C68.1618 87.5485 68.1161 87.403 67.7488 86.5581C67.5149 86.0202 67.3407 85.5463 67.3618 85.5052C67.4563 85.32 67.5709 85.4952 67.9579 86.4174C68.1856 86.9599 68.3895 87.4032 68.411 87.4026C68.4325 87.4019 68.4876 87.3727 68.5335 87.3375C68.5999 87.2867 68.5353 87.0796 68.2163 86.3206C67.996 85.7964 67.8158 85.3132 67.8158 85.2467C67.8158 84.9691 67.9826 85.238 68.3636 86.1292C68.737 87.0029 68.8942 87.2332 68.9895 87.0466C69.01 87.0065 68.8452 86.5484 68.6234 86.0284C68.351 85.3904 68.2335 85.0403 68.2617 84.9514C68.326 84.7487 68.4204 84.9063 68.8441 85.9236C69.1246 86.5971 69.2454 86.819 69.3319 86.819C69.3952 86.819 69.4469 86.7856 69.4469 86.7449C69.4469 86.7041 69.2702 86.244 69.0542 85.7226C68.8383 85.2012 68.6616 84.7412 68.6616 84.7004C68.6616 84.6596 68.7108 84.6263 68.771 84.6263C68.851 84.6263 68.9917 84.8925 69.2926 85.613C69.5192 86.1557 69.7249 86.5997 69.7496 86.5997C69.7744 86.5997 69.8237 86.5573 69.8592 86.5056C69.9072 86.4356 69.8237 86.1718 69.5343 85.4786C69.1294 84.5088 69.0837 84.3339 69.2351 84.3339C69.2908 84.3339 69.4825 84.7182 69.7362 85.3389L70.1471 86.3439L70.0413 86.7093C69.9067 87.1743 69.9017 87.9375 70.03 88.4183C70.2913 89.3974 71.1785 90.0205 71.9603 89.7741C72.1417 89.7169 72.3926 89.6069 72.5179 89.5296C73.2193 89.0966 73.7504 87.8495 73.641 86.8921C73.6204 86.7112 73.466 86.2014 73.2979 85.7592C73.1139 85.2747 72.9886 84.839 72.9827 84.6628C72.9773 84.502 72.9263 84.2631 72.8693 84.1319C72.7466 83.8494 72.642 83.2376 72.7164 83.2376C72.745 83.2376 72.878 83.5014 73.0121 83.824C73.2323 84.3539 73.2672 84.4029 73.3752 84.333C73.4409 84.2905 73.4946 84.2471 73.4946 84.2365C73.4946 84.226 73.3575 83.9064 73.1899 83.5264C72.802 82.6474 72.6505 82.2366 72.6946 82.1834C72.8009 82.0547 72.9137 82.2275 73.2515 83.0366C73.6729 84.0457 73.7281 84.1381 73.854 84.0439C73.9258 83.9902 73.8687 83.8031 73.5368 83.0026C73.1184 81.9935 73.0775 81.8488 73.2108 81.8488C73.2541 81.8488 73.4715 82.2929 73.6939 82.8356C74.0692 83.7509 74.2055 83.9542 74.3085 83.7525C74.3281 83.7142 74.1648 83.2501 73.9458 82.7211C73.5778 81.8328 73.5133 81.5565 73.6736 81.5565C73.7078 81.5565 73.9181 82.0005 74.1411 82.5432C74.5223 83.4708 74.644 83.6499 74.7808 83.4845C74.8014 83.4595 74.6247 82.9796 74.388 82.4182C74.0462 81.6076 73.9749 81.3847 74.0413 81.335C74.0878 81.3003 74.1527 81.3005 74.1873 81.3356C74.2217 81.3703 74.4257 81.8289 74.6406 82.3547C74.8556 82.8804 75.0459 83.3101 75.0635 83.3095C75.0812 83.3089 75.136 83.2775 75.1853 83.2398C75.2602 83.1825 75.208 83.0092 74.8681 82.1879C74.6444 81.6471 74.4613 81.1663 74.4613 81.1194C74.4613 81.0725 74.5088 81.0452 74.567 81.0585C74.6334 81.0739 74.8143 81.4221 75.0539 81.9958C75.2635 82.4979 75.4594 82.9385 75.4893 82.975C75.5218 83.0146 75.5801 83.0047 75.6343 82.9502C75.713 82.8712 75.6687 82.7285 75.2988 81.8713C74.988 81.1511 74.8906 80.8616 74.9392 80.8029C75.0405 80.6803 75.1295 80.8308 75.5463 81.8306C75.8952 82.6675 76.0478 82.8795 76.125 82.6346C76.1408 82.5844 75.9677 82.1156 75.7403 81.593C75.4532 80.9332 75.3446 80.6149 75.3848 80.5515C75.4166 80.5013 75.4607 80.4601 75.4829 80.4601C75.505 80.4601 75.7124 80.9036 75.9437 81.4455C76.175 81.9874 76.3991 82.4314 76.4417 82.4323C76.6236 82.4354 76.5618 82.1676 76.173 81.2675C75.8279 80.4685 75.7749 80.3005 75.8503 80.2428C75.8998 80.2049 75.9618 80.1997 75.9879 80.2313C76.0139 80.2628 76.2093 80.6972 76.422 81.1967C76.7834 82.0452 76.9312 82.2592 77.0268 82.0722C77.0484 82.0297 76.8725 81.5508 76.6359 81.0078C76.2749 80.1795 76.2215 80.0132 76.3042 79.9748C76.4365 79.9133 76.4449 79.9277 76.8803 80.9535C77.2334 81.7854 77.3805 81.9901 77.4555 81.7538C77.4721 81.7014 77.3078 81.2494 77.0903 80.7493C76.8728 80.2491 76.708 79.7986 76.724 79.748C76.7961 79.5209 76.9362 79.7229 77.3194 80.6073C77.6965 81.4773 77.8361 81.6771 77.9336 81.4862C77.9533 81.4476 77.7778 80.9751 77.5435 80.4363C77.1911 79.626 77.132 79.4422 77.2011 79.3728C77.3113 79.2621 77.3325 79.2973 77.7432 80.2774C78.17 81.2958 78.234 81.4039 78.3371 81.2808C78.4005 81.2051 78.3396 81.0048 78.0089 80.2021C77.7855 79.6598 77.6028 79.1836 77.6028 79.1439C77.6028 79.104 77.6406 79.0714 77.6869 79.0714C77.7345 79.0714 77.9503 79.5013 78.1823 80.0581C78.5668 80.9812 78.6849 81.1595 78.7836 80.9663C78.8057 80.9231 78.6395 80.4453 78.4142 79.9046C78.1006 79.1519 78.0212 78.9014 78.0756 78.8356C78.1752 78.715 78.2058 78.7676 78.6309 79.7895C78.837 80.2849 79.0452 80.7086 79.0936 80.7311C79.3158 80.8342 79.2647 80.585 78.871 79.6442C78.5337 78.8386 78.4686 78.6306 78.5334 78.5656C78.6392 78.4594 78.6792 78.5219 78.9966 79.2907C79.4144 80.3026 79.5347 80.5292 79.6304 80.4848C79.6781 80.4626 79.7172 80.413 79.7172 80.3745C79.7172 80.336 79.5405 79.8788 79.3245 79.3583C79.1086 78.8379 78.9319 78.3796 78.9319 78.3398C78.9319 78.3 78.9799 78.2674 79.0386 78.2674C79.1153 78.2674 79.2597 78.545 79.5518 79.2542C79.7754 79.7968 79.9823 80.2409 80.0116 80.2409C80.0409 80.2409 80.0931 80.1998 80.1276 80.1495C80.1731 80.0832 80.0765 79.7876 79.7755 79.0715C79.3894 78.153 79.3343 77.893 79.5471 77.9931C79.5908 78.0137 79.8033 78.462 80.0193 78.9893C80.2897 79.6493 80.4402 79.9415 80.5026 79.9272C80.66 79.8908 80.5836 79.5788 80.2034 78.706C79.8356 77.8616 79.801 77.6827 80.005 77.6827C80.0841 77.6827 80.1913 77.8717 80.3844 78.3519C80.8003 79.3854 80.9566 79.6561 81.1375 79.6561C81.2224 79.6561 81.304 79.6151 81.3189 79.5648C81.3564 79.4383 80.1955 76.7225 80.0632 76.6271C79.9761 76.5643 79.5464 76.8007 77.7675 77.8899C76.5638 78.627 74.9808 79.6046 74.2498 80.0625C73.5188 80.5203 72.8911 80.8957 72.8549 80.8968C72.8166 80.8979 73.0093 79.8385 73.3165 78.3588C74.1614 74.2905 74.8237 70.954 74.8237 70.7666C74.8237 70.4719 74.7233 70.5735 74.5798 71.0133ZM21.1623 71.2461C20.7525 71.4063 20.2405 71.9758 20.3686 72.1292C20.3976 72.1639 20.8156 72.4623 21.2974 72.7923C22.1695 73.3896 22.2613 73.4706 22.2631 73.6445C22.2645 73.7905 22.0571 73.7505 21.8255 73.5604C21.3387 73.1608 20.2059 72.4146 20.1497 72.4566C20.0078 72.5628 20.1158 72.7176 20.5271 72.9974C21.7561 73.8335 22.2655 74.3172 21.866 74.2688C21.7305 74.2523 20.6763 73.5297 20.6429 73.4303C20.6318 73.3974 20.5973 73.3704 20.5662 73.3704C20.5351 73.3704 20.4019 73.2882 20.2703 73.1877C20.1387 73.0872 19.9913 73.005 19.9428 73.005C19.808 73.005 19.7569 73.1633 19.8626 73.2536C19.9143 73.2978 20.011 73.38 20.0774 73.4363C20.1439 73.4926 20.5339 73.7744 20.9441 74.0626C21.6345 74.5475 21.8866 74.8322 21.6255 74.8322C21.5686 74.8322 21.1154 74.5503 20.6185 74.2058C19.7743 73.6205 19.542 73.522 19.5477 73.7519C19.5489 73.8033 19.8659 74.0593 20.252 74.3206C21.4673 75.143 21.6182 75.2836 21.3962 75.3867C21.3509 75.4077 20.8862 75.1271 20.3634 74.7631C19.8406 74.3992 19.3868 74.1209 19.3549 74.1447C19.2045 74.2572 19.4027 74.4581 20.2393 75.0415C20.7806 75.419 21.1528 75.7243 21.165 75.8007C21.2023 76.0345 20.9932 75.9389 20.0748 75.3022C19.2447 74.7267 18.9493 74.6007 19.016 74.8505C19.0294 74.9008 19.3937 75.1885 19.8255 75.49C20.7946 76.1666 20.9349 76.278 20.9349 76.371C20.9349 76.5772 20.687 76.4634 19.8157 75.8567C19.1988 75.4272 18.8405 75.2172 18.8026 75.2631C18.6882 75.4015 18.8159 75.5413 19.4814 76.0062C19.8518 76.265 20.2624 76.5532 20.3938 76.6467C20.6201 76.8075 20.729 77.098 20.5631 77.098C20.4794 77.098 19.7697 76.6266 19.5152 76.402C19.4155 76.3141 19.1645 76.1315 18.9575 75.9962C18.6772 75.813 18.5637 75.7713 18.5127 75.833C18.4751 75.8786 18.4598 75.9463 18.4789 75.9837C18.5143 76.0529 19.1675 76.5437 19.9532 77.0914C20.3759 77.3862 20.5151 77.6096 20.2759 77.6096C20.1667 77.6096 18.8846 76.7557 18.5123 76.435C18.3248 76.2735 18.2163 76.2986 18.2163 76.5035C18.2163 76.5921 18.5078 76.8328 19.1628 77.2853C19.6834 77.6449 20.1207 77.98 20.1345 78.0301C20.2066 78.2919 19.9048 78.1653 19.0543 77.5772C18.1904 76.98 17.9444 76.87 17.9444 77.0812C17.9444 77.1312 18.3658 77.4634 18.8808 77.8194C19.7572 78.4252 20.0285 78.706 19.7377 78.706C19.6724 78.706 19.2159 78.426 18.7233 78.0839C18.2307 77.7418 17.7995 77.4731 17.7652 77.487C17.5489 77.5741 17.734 77.7679 18.6175 78.3788C19.1392 78.7397 19.5773 79.076 19.5909 79.1262C19.6046 79.1765 19.5735 79.2372 19.5218 79.2612C19.4414 79.2985 19.1254 79.0974 17.5396 78.0002C17.5164 77.9841 17.4691 78.0347 17.4347 78.1126C17.3781 78.2405 17.4531 78.3105 18.1998 78.8273C18.655 79.1425 19.0556 79.4139 19.0901 79.4304C19.1782 79.4729 19.2995 79.6754 19.3018 79.7841C19.3053 79.9511 19.0966 79.8774 18.6996 79.5713C18.1561 79.1523 17.303 78.5598 17.2431 78.5598C17.0176 78.5598 16.9652 79.7398 17.1701 80.2043C17.3575 80.6293 17.5243 80.7892 18.7298 81.6989C19.3279 82.1502 20.0619 82.7123 20.3609 82.948C20.66 83.1836 20.923 83.378 20.9456 83.3801C20.968 83.382 21.0742 83.1946 21.1816 82.9635C21.6097 82.0416 25.2669 74.4176 25.5313 73.8959C25.6106 73.7394 25.6041 73.7152 25.4415 73.5669C25.288 73.4268 24.5544 72.9115 23.4722 72.1833C23.2895 72.0603 22.8992 71.7961 22.6049 71.5962C22.1556 71.2909 22.0104 71.2286 21.6987 71.2071C21.4946 71.1931 21.2532 71.2106 21.1623 71.2461ZM77.9955 75.8208C77.3974 76.1174 76.8264 76.4109 76.7268 76.473C76.6271 76.5351 75.9067 76.8969 75.1258 77.2771C74.345 77.6572 73.6865 78.011 73.6625 78.0631C73.5921 78.2164 73.3088 79.6018 73.3401 79.6397C73.3559 79.6588 73.5126 79.5597 73.6884 79.4194C73.8643 79.2792 74.3752 78.908 74.8237 78.5945C75.2723 78.281 75.884 77.8534 76.183 77.6442C76.4821 77.4351 76.9986 77.0627 77.3309 76.8167C77.6632 76.5707 78.2535 76.1469 78.6428 75.8749C79.0321 75.6029 79.3515 75.3557 79.3527 75.3256C79.3578 75.191 79.0082 75.3186 77.9955 75.8208ZM34.1021 76.7985C33.1541 77.2804 32.8217 77.4799 32.793 77.5844C32.7808 77.6287 33.2593 77.7557 33.9673 77.8959C35.4902 78.1977 36.299 78.4347 36.8436 78.7391C37.0818 78.8722 37.4398 79.0646 37.6392 79.1666C38.7867 79.7538 41.7984 81.8994 42.5221 82.6453C43.1431 83.2854 45.6337 85.394 45.6893 85.3268C45.7363 85.2699 45.4653 84.9035 44.4441 83.6427C43.2039 82.1117 42.7361 81.5932 41.5158 80.3971C39.8946 78.808 39.4259 78.4507 37.6224 77.4291C36.2959 76.6778 35.5649 76.3629 35.1742 76.3748C35.0133 76.3797 34.6216 76.5345 34.1021 76.7985ZM72.8271 78.665C72.9524 78.8478 72.88 79.17 72.696 79.2479C72.3961 79.3747 72.1592 78.9433 72.3813 78.6746C72.5 78.531 72.7317 78.526 72.8271 78.665ZM65.6852 79.0779C65.1108 79.2416 64.4724 79.8919 64.2029 80.5876C63.9746 81.1771 63.9764 81.9383 64.2073 82.4802C64.518 83.209 65.0889 83.603 65.8346 83.603C66.3947 83.603 66.8984 83.3401 68.0046 82.4706C68.1583 82.3497 69.0346 81.7252 69.9519 81.0826C70.8692 80.4402 71.6809 79.8587 71.7556 79.7905C71.8882 79.6694 71.8892 79.6588 71.7949 79.3506C71.7382 79.1653 71.6638 79.0415 71.6148 79.051C71.5429 79.0648 70.742 79.4035 70.474 79.5334C70.4241 79.5576 70.1198 79.6115 69.7976 79.6531C69.1995 79.7306 68.2323 79.6594 67.8477 79.5095C66.5035 78.9861 66.2117 78.9278 65.6852 79.0779ZM66.8424 79.9443C66.995 80.0386 67.1428 80.2125 67.2393 80.4116C67.7498 81.4656 66.9076 82.9078 65.7858 82.9006C64.4658 82.8922 64.1821 80.8958 65.3803 80.0462C65.5291 79.9408 65.7369 79.8279 65.8422 79.7953C66.1247 79.708 66.5661 79.7738 66.8424 79.9443ZM71.1104 83.5948C71.0562 83.8017 70.9918 83.7892 70.9035 83.5548C70.845 83.3994 70.8461 83.3486 70.9089 83.3017C71.0248 83.2149 71.1589 83.41 71.1104 83.5948ZM70.747 83.8981C70.8878 84.2344 70.9007 84.407 70.785 84.407C70.721 84.407 70.4142 83.6266 70.4576 83.5741C70.5379 83.4769 70.5994 83.5458 70.747 83.8981ZM70.4292 84.3686C70.6298 84.8588 70.668 85.1379 70.5346 85.1379C70.4808 85.1379 69.9907 84.0247 69.9907 83.9025C69.9907 83.8584 70.039 83.8223 70.0983 83.8223C70.1719 83.8223 70.2763 83.9946 70.4292 84.3686ZM70.0774 84.8764C70.3749 85.5475 70.4476 85.8697 70.3014 85.8685C70.2312 85.8679 69.559 84.1909 69.5982 84.1141C69.6634 83.9866 69.7295 84.0918 70.0774 84.8764ZM72.5529 85.9288C73.1756 86.4449 73.2276 87.6335 72.6632 88.4557C72.0494 89.35 71.1001 89.3304 70.684 88.4148C69.9982 86.9054 71.4311 84.9994 72.5529 85.9288ZM33.1338 92.1751C33.0815 92.2643 32.7303 92.9457 32.3533 93.6894C31.9764 94.4331 31.4321 95.5021 31.1437 96.0648C30.5015 97.3181 30.402 97.5478 30.4437 97.6794C30.5151 97.9045 30.7131 97.7851 30.8788 97.417L31.0431 97.0516H32.1487H33.2542L33.4135 97.3805L33.5728 97.7094H34.7451C35.4092 97.7094 35.9174 97.6805 35.9174 97.6429C35.9174 97.6062 35.6774 97.0718 35.384 96.4551C35.0906 95.8385 34.5002 94.5857 34.072 93.6712C33.6438 92.7566 33.279 92.0094 33.2613 92.0106C33.2435 92.0119 33.1862 92.0859 33.1338 92.1751ZM53.9053 92.4956C53.5657 93.1172 52.8582 94.5047 52.6818 94.8953C52.6091 95.0561 52.2872 95.7016 51.9665 96.3296C51.3712 97.495 51.2802 97.7825 51.5066 97.7825C51.5893 97.7825 51.6918 97.662 51.8177 97.417L52.0055 97.0516H53.1096H54.2137L54.3553 97.3622L54.4968 97.6728L55.6889 97.6926C56.3445 97.7035 56.8809 97.69 56.8809 97.6625C56.8809 97.6131 56.4728 96.7369 56.1538 96.1014C55.9954 95.7859 55.805 95.3763 55.5252 94.7492C55.1965 94.0128 54.3184 92.1811 54.2521 92.0937C54.1921 92.0146 54.1269 92.0902 53.9053 92.4956ZM67.4697 93.4153C67.0737 94.1892 66.4583 95.392 66.1023 96.0882C65.7462 96.7845 65.439 97.4505 65.4195 97.5683C65.3884 97.757 65.4012 97.7825 65.5276 97.7824C65.6368 97.7823 65.7116 97.6951 65.8407 97.4169L66.0103 97.0516H67.122H68.2336L68.3929 97.3805L68.5522 97.7094H69.731C70.8288 97.7094 70.907 97.7006 70.8694 97.5815C70.8472 97.5111 70.5644 96.8944 70.241 96.211C69.9174 95.5276 69.3415 94.3033 68.9608 93.4903C68.5802 92.6772 68.2511 92.0112 68.2294 92.0102C68.2076 92.0092 67.8658 92.6415 67.4697 93.4153ZM25.7075 94.9988V97.7094H27.2133C28.9327 97.7094 29.2188 97.6583 29.5773 97.287C29.881 96.9725 29.9969 96.7039 29.9969 96.3147C29.9969 95.9846 29.8209 95.5628 29.6501 95.4835C29.564 95.4435 29.58 95.4051 29.7496 95.2446C30.152 94.8635 30.2943 94.0425 30.0642 93.4295C29.9262 93.062 29.5593 92.6745 29.1727 92.488C28.9152 92.3639 28.6848 92.3429 27.2934 92.3173L25.7075 92.2881V94.9988ZM36.446 92.3422C36.4211 92.373 36.4007 93.594 36.4007 95.0555V97.7127L37.4731 97.6928L38.5454 97.6728L38.5632 97.1429C38.5729 96.8515 38.5927 96.613 38.6072 96.613C38.6217 96.613 38.8232 96.7805 39.0551 96.9852C39.8093 97.651 40.8713 98.0303 40.8713 97.634C40.8713 97.5523 40.8374 97.4738 40.7958 97.4596C40.3791 97.3162 39.5006 96.9505 39.4589 96.903C39.4296 96.8697 39.5112 96.8186 39.6401 96.7894C40.3881 96.6199 40.9622 95.9064 41.1074 94.9657C41.1816 94.4855 41.0581 93.9509 40.7448 93.3955C40.2155 92.4574 39.9756 92.3633 38.0017 92.3196C37.171 92.3013 36.471 92.3115 36.446 92.3422ZM41.8664 92.3896C41.8486 92.4454 41.8418 93.657 41.8512 95.082L41.8682 97.6728H43.5295C45.0513 97.6728 45.2107 97.6609 45.4267 97.5313C45.9748 97.2023 46.2803 96.5563 46.1311 96.0423C46.088 95.8939 45.9843 95.6838 45.9005 95.5752L45.7482 95.378L45.94 95.1828C46.2849 94.8317 46.4197 94.215 46.2779 93.6371C46.2086 93.3548 46.1139 93.1844 45.894 92.946C45.3808 92.3897 45.2302 92.3509 43.4541 92.3174C42.1657 92.293 41.8931 92.3055 41.8664 92.3896ZM46.9956 94.9857L47.0033 97.6728H49.1178C51.192 97.6728 51.2323 97.6701 51.2323 97.5266C51.2323 97.3876 51.1819 97.3786 50.2052 97.3439L49.1782 97.3074L49.1619 95.7177L49.1456 94.128H50.107C50.9391 94.128 51.0734 94.112 51.106 94.0091C51.1929 93.735 51.0459 93.6894 50.0742 93.6894H49.1425L49.1603 93.1961L49.1782 92.7027L50.0542 92.6662C50.8799 92.6317 50.9302 92.6212 50.9302 92.4834C50.9302 92.3406 50.8846 92.3368 48.959 92.318L46.9878 92.2987L46.9956 94.9857ZM57.3642 95.0051V97.7094H58.4215H59.4787V97.1612C59.4787 96.8597 59.4998 96.613 59.5256 96.613C59.5514 96.613 59.7214 96.7493 59.9032 96.9159C60.6188 97.5714 61.7072 98.0064 61.8112 97.6786C61.8623 97.5175 61.8295 97.4867 61.4891 97.3751C61.0211 97.2216 60.3865 96.9457 60.3856 96.8952C60.3853 96.8696 60.4869 96.8257 60.6115 96.7977C61.2038 96.6649 61.8093 95.9937 61.9859 95.2746C62.1614 94.5596 62.0904 94.1401 61.6624 93.3617C61.1661 92.459 60.7222 92.3046 58.6178 92.3022L57.3642 92.3007V95.0051ZM62.8014 95.0051V97.7094H63.8889H64.9763V95.0051V92.3007H63.8889H62.8014V95.0051ZM28.6894 92.7782C29.1371 92.8475 29.5643 93.1671 29.7312 93.5577C29.9114 93.9792 29.7793 94.833 29.5066 95.0096C29.353 95.1091 28.8455 95.1277 28.5319 95.0454C28.3252 94.9912 28.3053 94.9997 28.3053 95.1428C28.3053 95.3708 28.6353 95.5892 28.9803 95.5895C29.1957 95.5897 29.3067 95.6346 29.4485 95.779C29.609 95.9423 29.6344 96.0167 29.6344 96.322C29.6344 96.6208 29.6039 96.7148 29.4381 96.9271C29.2735 97.1377 29.1733 97.1929 28.8188 97.2681C28.5862 97.3175 28.2872 97.3465 28.1543 97.3326L27.9126 97.3074L27.8966 95.0466C27.8793 92.5927 27.8729 92.6402 28.2147 92.7007C28.3144 92.7184 28.528 92.7533 28.6894 92.7782ZM44.6612 92.7393C45.3866 92.8533 45.8083 93.2039 45.9485 93.8095C46.0408 94.2084 45.9382 94.7251 45.7268 94.9263C45.5313 95.1123 45.1003 95.179 44.7991 95.0698C44.5277 94.9715 44.4042 95.0398 44.4713 95.2514C44.5309 95.4395 44.8203 95.5898 45.1229 95.5898C45.7841 95.5898 46.0216 96.3837 45.5423 96.9916C45.3694 97.211 44.7847 97.3716 44.3089 97.3304L44.043 97.3074L44.027 95.0789C44.0182 93.8532 44.0242 92.809 44.0403 92.7583C44.0745 92.6502 44.0908 92.6497 44.6612 92.7393ZM39.9099 92.9808C40.2784 93.1804 40.4375 93.3656 40.6316 93.8207C40.7981 94.2108 40.811 94.9004 40.6603 95.3513C40.4709 95.9179 39.9341 96.3494 39.3128 96.4345C38.9455 96.4848 38.9388 96.4823 38.7272 96.2263C38.5347 95.9934 38.5158 95.9356 38.5393 95.6507C38.5536 95.4765 38.5677 94.7453 38.5705 94.0257L38.5756 92.7176L39.0792 92.7605C39.4201 92.7896 39.6884 92.8608 39.9099 92.9808ZM60.8839 92.9973C61.058 93.103 61.2509 93.2443 61.3126 93.3115C61.6543 93.6835 61.8145 94.6657 61.6292 95.2525C61.426 95.8965 60.9042 96.3485 60.2628 96.4363C59.9426 96.4801 59.8937 96.467 59.6955 96.2841L59.4787 96.0841V95.4099C59.4787 95.0392 59.4967 94.282 59.5187 93.7275L59.5586 92.7192L60.063 92.7623C60.4355 92.7941 60.6499 92.8555 60.8839 92.9973ZM32.3368 94.9137C32.4143 95.1343 32.7591 95.8965 32.9542 96.2783C33.0223 96.4116 33.078 96.5414 33.078 96.5668C33.078 96.5923 32.6702 96.613 32.1718 96.613C31.6734 96.613 31.2656 96.6025 31.2656 96.5896C31.2656 96.5768 31.4083 96.3035 31.5828 95.9824C31.7572 95.6613 31.9654 95.2443 32.0453 95.0556C32.1253 94.867 32.2077 94.7127 32.2285 94.7127C32.2492 94.7127 32.2979 94.8031 32.3368 94.9137ZM53.5811 95.5955C53.8011 96.081 53.9811 96.5086 53.9811 96.5456C53.9811 96.5836 53.5993 96.613 53.1051 96.613C52.6233 96.613 52.2291 96.5943 52.2291 96.5714C52.2291 96.5485 52.3058 96.3922 52.3995 96.2242C52.4933 96.0562 52.701 95.6473 52.8612 95.3157C53.0215 94.9841 53.159 94.7127 53.1668 94.7127C53.1747 94.7127 53.3612 95.1099 53.5811 95.5955ZM67.6288 95.6342C67.8645 96.1411 68.0574 96.5687 68.0574 96.5844C68.0574 96.6002 67.6496 96.613 67.1512 96.613C66.6528 96.613 66.245 96.5972 66.245 96.5779C66.245 96.5586 66.381 96.2979 66.5471 95.9988C66.7132 95.6995 66.8492 95.4399 66.8492 95.4218C66.8492 95.3734 67.1582 94.7127 67.1808 94.7127C67.1915 94.7127 67.393 95.1274 67.6288 95.6342Z" fill="white"/>
</svg>
